<svg id="Calque_1" data-name="Calque 1" xmlns="http://www.w3.org/2000/svg" viewBox="0 0 369.5 58.28"><path d="M343.23,44.46c-7.13,0-10.21-5.77-10.21-14.23s3-14.7,10.21-14.7,10.12,6.24,10.12,14.7-2.92,14.23-10.12,14.23m0,14.62c16.35,0,27.23-11.62,27.23-29C370.46,12.84,359.58.9,343.23.9S316,12.84,316,30.07c0,17.39,10.95,29,27.23,29m-68-32.33V15.84h3.52c5.56,0,8,1.66,8,5.46,0,3.55-2.7,5.45-7.8,5.45ZM257.56,57.58h17.63v-19h3.45c5.1,0,6.45,1.66,7.42,9.88.68,5.14.91,6.72,1.73,9.09h17.93a41.4,41.4,0,0,1-1.8-8.14l-.75-5.38c-1.05-7.66-3.9-10.51-9.83-12.09a14,14,0,0,0,10.58-13.91A15.09,15.09,0,0,0,298.52,6c-3.3-2.77-7.28-3.79-14.55-3.79H257.56ZM210.37,16.16h1.2c8.7,0,13.36,3.71,13.36,13.75,0,9.88-4.28,13.76-13.43,13.76h-1.13Zm-17.55,41.5H211.5c19.88,0,31.28-8.06,31.28-27.82,0-20.88-11.4-27.52-31.28-27.52H192.82ZM143.53,2.32h-15.9V57.66h16.13V44.3c0-8.85-.38-15.1-.38-15.1h.08S152.61,44.62,160,57.66h15.9V2.32H159.81V15.13c0,8.3.23,14.31.23,14.31H160ZM80.3,35.05c2-6.8,3.45-11.93,4.8-17.07h.07c1.35,5.14,2.93,10.27,4.88,17.07Zm34.05,22.61L95.45,2.32H75.65L56.44,57.66H73.77l2.63-9.17H94l2.62,9.17ZM47.59,19.56C46.61,7.23,38.66.9,24.26.9,9.71.9,1.9,8,1.9,18.21c0,9,4.35,14.55,17.11,17.95l6.22,1.66c3.83,1,6,2,6,4.43s-2.17,4-5.7,4-5.92-2.06-6.37-6.56H1C1.83,52,9.55,59.08,24.63,59.08c14.86,0,23.71-7.19,23.71-18.18,0-9.25-4.88-13.83-17.56-17.63l-2.92-.87c-5.93-1.74-8.63-2.21-8.63-5.13,0-2.06,1.65-3.72,4.8-3.72,3.9,0,5.78,1.9,6.45,6Z" transform="translate(-1 -0.9)" fill="#1d1d1b"/><rect x="0.04" y="0.1" width="369.46" height="58.18" fill="none"/></svg>