<svg width="16" height="16" viewBox="0 0 16 16" fill="none" xmlns="http://www.w3.org/2000/svg">
<path fill-rule="evenodd" clip-rule="evenodd" d="M4.39645 14.8536C4.20118 14.6583 4.20118 14.3417 4.39645 14.1464L10.8964 7.64645C11.0917 7.45118 11.4083 7.45118 11.6036 7.64645C11.7988 7.84171 11.7988 8.15829 11.6036 8.35355L5.10355 14.8536C4.90829 15.0488 4.59171 15.0488 4.39645 14.8536Z" fill="black"/>
<path fill-rule="evenodd" clip-rule="evenodd" d="M4.39645 1.14645C4.20118 1.34171 4.20118 1.65829 4.39645 1.85355L10.8964 8.35355C11.0917 8.54882 11.4083 8.54882 11.6036 8.35355C11.7988 8.15829 11.7988 7.84171 11.6036 7.64645L5.10355 1.14645C4.90829 0.951184 4.59171 0.951184 4.39645 1.14645Z" fill="black"/>
</svg>
