<svg width="24" height="24" viewBox="0 0 24 24" fill="none" xmlns="http://www.w3.org/2000/svg">
<path fill-rule="evenodd" clip-rule="evenodd" d="M21.8083 3.21723C22.0784 2.9471 22.1344 2.56512 21.9333 2.36405C21.7323 2.16299 21.3503 2.21898 21.0801 2.48911L12.0001 11.5691L2.92025 2.48922C2.65011 2.21908 2.26813 2.16309 2.06706 2.36416C1.866 2.56522 1.92199 2.94721 2.19212 3.21734L11.272 12.2972L2.49358 21.0757C2.22345 21.3458 2.16746 21.7278 2.36852 21.9289C2.56959 22.1299 2.95157 22.0739 3.22171 21.8038L12.0001 13.0254L20.7785 21.8038C21.0487 22.0739 21.4307 22.1299 21.6317 21.9288C21.8328 21.7278 21.7768 21.3458 21.5067 21.0757L12.7283 12.2972L21.8083 3.21723Z" fill="black"/>
</svg>
