<svg width="24" height="24" viewBox="0 0 24 24" fill="none" xmlns="http://www.w3.org/2000/svg">
<path fill-rule="evenodd" clip-rule="evenodd" d="M9.64637 15.6464L17.6464 7.64644C17.8416 7.45118 18.1582 7.45118 18.3535 7.64644C18.5487 7.84171 18.5487 8.15829 18.3535 8.35355L10.3535 16.3536C10.1582 16.5488 9.84163 16.5488 9.64637 16.3536C9.45111 16.1583 9.45111 15.8417 9.64637 15.6464Z" fill="black"/>
<path fill-rule="evenodd" clip-rule="evenodd" d="M11.5 11C12.3284 11 13 10.3284 13 9.5C13 8.67157 12.3284 8 11.5 8C10.6716 8 10 8.67157 10 9.5C10 10.3284 10.6716 11 11.5 11ZM11.5 12C12.8807 12 14 10.8807 14 9.5C14 8.11929 12.8807 7 11.5 7C10.1193 7 9 8.11929 9 9.5C9 10.8807 10.1193 12 11.5 12Z" fill="black"/>
<path fill-rule="evenodd" clip-rule="evenodd" d="M16.5 16C17.3284 16 18 15.3284 18 14.5C18 13.6716 17.3284 13 16.5 13C15.6716 13 15 13.6716 15 14.5C15 15.3284 15.6716 16 16.5 16ZM16.5 17C17.8807 17 19 15.8807 19 14.5C19 13.1193 17.8807 12 16.5 12C15.1193 12 14 13.1193 14 14.5C14 15.8807 15.1193 17 16.5 17Z" fill="black"/>
<path fill-rule="evenodd" clip-rule="evenodd" d="M2 4.5C2 3.67157 2.67157 3 3.5 3H20.5C21.3284 3 22 3.67157 22 4.5V19.5C22 20.3284 21.3284 21 20.5 21H3.5C2.67157 21 2 20.3284 2 19.5V16H3V19.5C3 19.7761 3.22386 20 3.5 20H20.5C20.7761 20 21 19.7761 21 19.5V4.5C21 4.22386 20.7761 4 20.5 4H3.5C3.22386 4 3 4.22386 3 4.5V8H2V4.5Z" fill="black"/>
<path fill-rule="evenodd" clip-rule="evenodd" d="M5.5 12C5.5 10.067 3.933 8.5 2 8.5V7.5C4.48528 7.5 6.5 9.51472 6.5 12C6.5 14.4853 4.48528 16.5 2 16.5V15.5C3.933 15.5 5.5 13.933 5.5 12Z" fill="black"/>
</svg>
