<svg width="24" height="24" viewBox="0 0 24 24" fill="none" xmlns="http://www.w3.org/2000/svg">
<path fill-rule="evenodd" clip-rule="evenodd" d="M12.1091 6.8894L11.1891 5.71041C10.4178 4.72197 9.49007 3.75091 8.41138 3.28437C7.42449 2.85754 6.20213 2.80318 4.62049 3.889C3.16188 4.89035 2.84167 6.24121 3.06216 7.67155C3.29173 9.1608 4.1141 10.6512 4.83777 11.5807L11.9775 20.4097L19.1275 11.5682L19.132 11.5628C19.7612 10.8069 20.6402 9.34966 20.9149 7.83032C21.0499 7.08385 21.0315 6.36519 20.8074 5.71635C20.5879 5.08076 20.1498 4.44862 19.3346 3.88901C17.781 2.82245 16.4278 2.88557 15.3415 3.34962C14.1912 3.84098 13.2878 4.81257 12.8472 5.58881L12.1091 6.8894ZM11.9775 22L4.05456 12.2025C2.47005 10.1718 0.357139 5.60287 4.05451 3.06458C7.26796 0.85851 9.68348 2.48705 11.301 4.28426C11.5446 4.55493 11.7701 4.82943 11.9775 5.09523C12.1327 4.82174 12.3336 4.52998 12.575 4.23928C13.9766 2.55143 16.7464 0.899211 19.9006 3.06459C23.8211 5.75604 21.3091 10.5103 19.9006 12.2025L11.9775 22Z" fill="black"/>
</svg>
