<svg width="28" height="24" viewBox="0 0 28 24" fill="none" xmlns="http://www.w3.org/2000/svg">
<g clip-path="url(#clip0_1_40)">
<path d="M0.385471 1.7791V22.2209C0.385471 23.1994 1.18606 24 2.16457 24H14.3781C23.6116 24 27.6145 18.8317 27.6145 11.9733C27.6145 5.15048 23.6116 0 14.3781 0H2.16457C1.18606 0 0.385471 0.800593 0.385471 1.7791Z" fill="white"/>
<path d="M8.56042 5.01705V20.1216H15.1342C21.103 20.1216 23.6916 16.7502 23.6916 11.9822C23.6916 7.41883 21.103 3.87843 15.1342 3.87843H9.69904C9.06746 3.87843 8.56042 4.39436 8.56042 5.01705Z" fill="#CC0066"/>
<path d="M14.3781 22.3721H3.75686C2.81394 22.3721 2.04893 21.6071 2.04893 20.6642V3.3447C2.04893 2.40178 2.81394 1.63676 3.75686 1.63676H14.3781C24.4566 1.63676 25.96 8.12157 25.96 11.9822C25.96 18.6805 21.8414 22.3721 14.3781 22.3721ZM3.75686 2.20608C3.12528 2.20608 2.61824 2.71312 2.61824 3.3447V20.6642C2.61824 21.2958 3.12528 21.8028 3.75686 21.8028H14.3781C21.4767 21.8028 25.3907 18.3158 25.3907 11.9822C25.3907 3.47813 18.4878 2.20608 14.3781 2.20608H3.75686Z" fill="black"/>
<path d="M10.8732 9.94514C11.1045 9.94514 11.318 9.98073 11.5226 10.0519C11.7272 10.1231 11.8962 10.2387 12.0474 10.381C12.1898 10.5322 12.3054 10.7191 12.3944 10.9325C12.4744 11.1549 12.5189 11.4129 12.5189 11.7153C12.5189 11.9822 12.4833 12.2224 12.4211 12.4448C12.3499 12.6672 12.252 12.8629 12.1186 13.023C11.9852 13.1831 11.8162 13.3076 11.6116 13.4055C11.407 13.4944 11.1668 13.5478 10.891 13.5478H9.33432V9.93625H10.8732V9.94514ZM10.8199 12.8895C10.9355 12.8895 11.0423 12.8718 11.1579 12.8362C11.2646 12.8006 11.3625 12.7383 11.4426 12.6494C11.5226 12.5604 11.5938 12.4537 11.6471 12.3113C11.7005 12.169 11.7272 12.0089 11.7272 11.8043C11.7272 11.6264 11.7094 11.4574 11.6738 11.315C11.6383 11.1727 11.576 11.0393 11.4959 10.9414C11.4159 10.8436 11.3091 10.7546 11.1757 10.7013C11.0423 10.6479 10.8821 10.6212 10.6864 10.6212H10.1171V12.8984H10.8199V12.8895Z" fill="white"/>
<path d="M15.7302 9.94514V10.6123H13.8265V11.3862H15.579V12H13.8265V12.8807H15.7747V13.5478H13.0348V9.93625H15.7302V9.94514Z" fill="white"/>
<path d="M18.4522 9.94514L19.8043 13.5567H18.977L18.7013 12.7561H17.3491L17.0645 13.5567H16.2639L17.6249 9.94514H18.4522ZM18.4967 12.1601L18.043 10.8347H18.0341L17.5626 12.1601H18.4967Z" fill="white"/>
<path d="M21.0941 9.94514V12.8895H22.8555V13.5567H20.3024V9.94514H21.0941Z" fill="white"/>
<path d="M5.58933 13.4144C6.50803 13.4144 7.25278 12.6696 7.25278 11.7509C7.25278 10.8322 6.50803 10.0875 5.58933 10.0875C4.67063 10.0875 3.92587 10.8322 3.92587 11.7509C3.92587 12.6696 4.67063 13.4144 5.58933 13.4144Z" fill="black"/>
<path d="M6.84359 20.1216C5.447 20.1216 4.32617 18.9918 4.32617 17.6041V15.6382C4.32617 14.9444 4.88658 14.3751 5.58933 14.3751C6.28317 14.3751 6.85248 14.9355 6.85248 15.6382V20.1216H6.84359Z" fill="black"/>
</g>
<defs>
<clipPath id="clip0_1_40">
<rect width="28" height="24" fill="white"/>
</clipPath>
</defs>
</svg>
