<svg width="16" height="16" viewBox="0 0 16 16" fill="none" xmlns="http://www.w3.org/2000/svg">
<path fill-rule="evenodd" clip-rule="evenodd" d="M1 3.49554C1 2.66712 1.67157 1.99554 2.5 1.99554H9.5C10.327 1.99554 11 2.66344 11 3.49332V11.787C11 12.0631 10.7761 12.287 10.5 12.287C10.2992 12.287 10.126 12.1686 10.0465 11.9979C10.0312 11.9993 10.0157 12 10 12H2.5C1.67157 12 1 11.3284 1 10.5V3.49554ZM10 11V3.49332C10 3.21863 9.7776 2.99554 9.5 2.99554H2.5C2.22386 2.99554 2 3.2194 2 3.49554V10.5C2 10.7761 2.22386 11 2.5 11H10Z" fill="black"/>
<path fill-rule="evenodd" clip-rule="evenodd" d="M3.65573 13.3115C4.01789 13.3115 4.31147 13.0179 4.31147 12.6557C4.31147 12.2936 4.01789 12 3.65573 12C3.29358 12 3 12.2936 3 12.6557C3 13.0179 3.29358 13.3115 3.65573 13.3115ZM3.65573 14.3115C4.57017 14.3115 5.31147 13.5702 5.31147 12.6557C5.31147 11.7413 4.57017 11 3.65573 11C2.7413 11 2 11.7413 2 12.6557C2 13.5702 2.7413 14.3115 3.65573 14.3115Z" fill="black"/>
<path fill-rule="evenodd" clip-rule="evenodd" d="M9.65573 13.3115C10.0179 13.3115 10.3115 13.0179 10.3115 12.6557C10.3115 12.2936 10.0179 12 9.65573 12C9.29358 12 9 12.2936 9 12.6557C9 13.0179 9.29358 13.3115 9.65573 13.3115ZM9.65573 14.3115C10.5702 14.3115 11.3115 13.5702 11.3115 12.6557C11.3115 11.7413 10.5702 11 9.65573 11C8.7413 11 8 11.7413 8 12.6557C8 13.5702 8.7413 14.3115 9.65573 14.3115Z" fill="black"/>
<path fill-rule="evenodd" clip-rule="evenodd" d="M14 6H11V11H14V6ZM11 5C10.4477 5 10 5.44772 10 6V11C10 11.5523 10.4477 12 11 12H14C14.5523 12 15 11.5523 15 11V6C15 5.44772 14.5523 5 14 5H11Z" fill="black"/>
<path fill-rule="evenodd" clip-rule="evenodd" d="M13 7.5V9.14917C13 9.42532 12.7761 9.64917 12.5 9.64917C12.2239 9.64917 12 9.42532 12 9.14918V7.5C12 7.22386 12.2239 7 12.5 7C12.7761 7 13 7.22386 13 7.5Z" fill="black"/>
</svg>
