<svg width="109" height="20" viewBox="0 0 109 20" fill="none" xmlns="http://www.w3.org/2000/svg">
<g clip-path="url(#clip0_1_64)">
<path d="M12.8023 2.63158H21.0038V17.3697H12.8023V2.63158Z" fill="#FF5F00"/>
<path d="M13.3249 9.99875C13.3237 8.57953 13.6453 7.17862 14.2655 5.90205C14.8856 4.62548 15.788 3.50668 16.9043 2.63033C12.8347 -0.569968 6.94297 0.135943 3.74392 4.20803C2.32462 6.01049 1.61571 8.27091 1.75147 10.5611C1.88723 12.8512 2.85824 15.0121 4.48055 16.6342C6.10286 18.2564 8.26378 19.2272 10.554 19.3627C12.8441 19.4983 15.1045 18.7891 16.9068 17.3697C15.7902 16.493 14.8877 15.3738 14.2675 14.0968C13.6474 12.8197 13.3259 11.4184 13.3274 9.99875H13.3249Z" fill="#EB001B"/>
<path d="M32.0702 9.99875C32.0699 11.7572 31.575 13.48 30.6421 14.9706C29.7092 16.4611 28.3759 17.6592 26.7944 18.4279C25.2129 19.1967 23.4471 19.5051 21.6987 19.318C19.9503 19.1308 18.2898 18.4557 16.9068 17.3697C18.023 16.4925 18.9253 15.3732 19.5457 14.0964C20.1661 12.8195 20.4883 11.4184 20.4881 9.99877C20.4878 8.57916 20.1651 7.17816 19.5443 5.9015C18.9235 4.62484 18.0208 3.50588 16.9043 2.62908C18.2872 1.54239 19.9478 0.866647 21.6965 0.679073C23.4452 0.491499 25.2114 0.799664 26.7933 1.56835C28.3752 2.33703 29.7089 3.53523 30.642 5.02601C31.5751 6.51679 32.07 8.24001 32.0702 9.99875Z" fill="#F79E1B"/>
<path d="M48.1952 13.1579V9.24919C48.1952 7.77501 47.2548 6.78349 45.7419 6.77102C45.311 6.74315 44.8804 6.83144 44.4952 7.02668C44.11 7.22193 43.7842 7.51696 43.5519 7.88102C43.3396 7.52817 43.0363 7.23893 42.6738 7.04363C42.3113 6.84833 41.9029 6.75417 41.4915 6.77102C41.1336 6.75381 40.7774 6.83024 40.4581 6.99274C40.1388 7.15525 39.8673 7.39823 39.6706 7.69768V6.91694H38.3149V13.1554H39.6843V9.69818C39.6843 8.61312 40.283 8.04191 41.2096 8.04191C42.1363 8.04191 42.5691 8.62809 42.5691 9.68446V13.1542H43.921V9.69818C43.921 8.61312 44.5446 8.04191 45.4476 8.04191C46.3481 8.04191 46.817 8.62809 46.817 9.68446V13.1542H48.1964L48.1952 13.1579ZM68.4621 6.92193H66.247V5.03243H64.8751V6.92193H63.6105V8.16039H64.8751V11.004C64.8751 12.4507 65.4364 13.3138 67.0403 13.3138C67.6389 13.3163 68.2251 13.1492 68.7327 12.8324L68.3423 11.67C67.9806 11.887 67.5653 12.0067 67.1413 12.0192C66.4641 12.0192 66.2396 11.6039 66.2396 10.979V8.15914H68.4571L68.4608 6.92442L68.4621 6.92193ZM80.0285 6.76727C79.6981 6.75731 79.371 6.8369 79.0821 6.99762C78.7932 7.15833 78.5531 7.39419 78.3872 7.68022V6.92193H77.0428V13.1579H78.3997V9.65952C78.3997 8.61811 78.8425 8.05563 79.7292 8.05563C80.0211 8.05188 80.3092 8.10551 80.5798 8.21277L80.9964 6.9344C80.6862 6.82324 80.3593 6.76587 80.0298 6.76478L80.0285 6.76727ZM62.5391 7.41956C61.7722 6.96013 60.8882 6.73351 59.9949 6.76727C58.4172 6.76727 57.392 7.52432 57.392 8.76278C57.392 9.77925 58.149 10.4053 59.5434 10.6011L60.1832 10.6934C60.9265 10.797 61.2807 10.9928 61.2807 11.342C61.2807 11.8259 60.7856 12.1003 59.8564 12.1003C59.1081 12.1252 58.376 11.8957 57.7736 11.4517L57.1375 12.5081C57.9283 13.0569 58.8736 13.3437 59.8377 13.315C61.6337 13.315 62.6813 12.4669 62.6813 11.2821C62.6813 10.1846 61.8582 9.61337 60.505 9.41756L59.8664 9.32652C59.2802 9.24794 58.8088 9.13071 58.8088 8.71539C58.8088 8.25892 59.2503 7.98578 59.9936 7.98578C60.6763 7.99458 61.3454 8.17837 61.9367 8.51958L62.5416 7.41706L62.5391 7.41956ZM98.8736 6.76603C98.5432 6.75606 98.2161 6.83566 97.9272 6.99637C97.6383 7.15709 97.3982 7.39295 97.2323 7.67897V6.92193H95.8879V13.1579H97.2448V9.65952C97.2448 8.61811 97.6876 8.05563 98.5743 8.05563C98.8637 8.05188 99.1543 8.10551 99.4249 8.21277L99.8415 6.9344C99.5312 6.82364 99.2043 6.76628 98.8749 6.76478V6.76727L98.8736 6.76603ZM81.4004 10.0399C81.4004 11.9307 82.7187 13.3125 84.7255 13.3125C85.5394 13.3534 86.339 13.0878 86.9667 12.568L86.3156 11.4704C85.8469 11.8283 85.2752 12.0251 84.6856 12.0317C83.603 12.0317 82.8085 11.2335 82.8085 10.0362C82.8085 8.83886 83.6067 8.05313 84.6868 8.04066C85.278 8.04814 85.8467 8.24395 86.3181 8.6019L86.9667 7.50437C86.3392 6.98508 85.5403 6.71907 84.7267 6.75854C82.7187 6.75854 81.4017 8.14043 81.4017 10.0312V10.0387L81.4004 10.0399ZM94.1019 10.0399V6.91444H92.7449V7.67274C92.514 7.37729 92.2165 7.14075 91.8765 6.9825C91.5366 6.82425 91.164 6.74878 90.7893 6.76229C89.0432 6.76229 87.6639 8.1342 87.6639 10.0374C87.6639 11.9406 89.0358 13.3101 90.7893 13.3101C91.1664 13.3261 91.5419 13.2516 91.8843 13.0927C92.2267 12.9339 92.5261 12.6954 92.7574 12.3971V13.1542H94.1143L94.1019 10.0399ZM89.0545 10.0399C89.0545 8.94238 89.7704 8.0444 90.9452 8.0444C92.0677 8.0444 92.8222 8.90496 92.8222 10.0399C92.8222 11.1749 92.0677 12.0354 90.944 12.0354C89.7679 12.0354 89.052 11.1337 89.052 10.0399H89.0545ZM72.6913 6.76353C70.8679 6.76353 69.5858 8.09429 69.5858 10.0374C69.5858 12.0205 70.9165 13.3101 72.7823 13.3101C73.7128 13.3424 74.6227 13.0317 75.3391 12.437L74.6756 11.4293C74.1567 11.8446 73.5157 12.0741 72.8509 12.0803C71.9779 12.0803 71.1834 11.6775 70.9889 10.555H75.6185C75.6309 10.3841 75.6434 10.2183 75.6434 10.0337C75.6434 8.09055 74.4299 6.75979 72.6838 6.75979L72.6913 6.76353ZM72.6626 7.9783C73.5394 7.9783 74.0969 8.52457 74.2416 9.49115H70.9988C71.1423 8.59067 71.691 7.9783 72.6551 7.9783H72.6626ZM106.69 10.0362V4.41881H105.333V7.67897C105.102 7.38055 104.802 7.14184 104.46 6.98279C104.117 6.82374 103.742 6.74899 103.365 6.76478C101.619 6.76478 100.239 8.13669 100.239 10.0387C100.239 11.9406 101.611 13.3113 103.366 13.3113C104.131 13.3437 104.863 13.0032 105.334 12.3984V13.1554H106.691V10.0374L106.69 10.0362ZM101.642 10.0362C101.642 8.94113 102.358 8.04066 103.533 8.04066C104.656 8.04066 105.411 8.90372 105.411 10.0362C105.411 11.1686 104.657 12.0317 103.533 12.0317C102.361 12.0317 101.642 11.1312 101.642 10.0362ZM55.8417 10.0362V6.9132H54.486V7.67149C54.2528 7.37418 53.952 7.13681 53.6086 6.97911C53.2652 6.82141 52.8892 6.74793 52.5117 6.76478C50.7656 6.76478 49.3875 8.13669 49.3875 10.0387C49.3875 11.9406 50.7569 13.3113 52.5117 13.3113C52.8891 13.3271 53.2649 13.2525 53.6077 13.0937C53.9504 12.9349 54.2503 12.6965 54.4823 12.3984V13.1554H55.8367L55.8405 10.0374L55.8417 10.0362ZM50.7968 10.0362C50.7968 8.94113 51.5127 8.04066 52.6875 8.04066C53.81 8.04066 54.5646 8.90372 54.5646 10.0362C54.5646 11.1686 53.8063 12.0317 52.6863 12.0317C51.5065 12.0342 50.7906 11.1337 50.7906 10.0399L50.7956 10.0374L50.7968 10.0362Z" fill="black"/>
</g>
<defs>
<clipPath id="clip0_1_64">
<rect width="108.75" height="20" fill="white"/>
</clipPath>
</defs>
</svg>
