<svg width="24" height="24" viewBox="0 0 24 24" fill="none" xmlns="http://www.w3.org/2000/svg">
<path fill-rule="evenodd" clip-rule="evenodd" d="M21 3H3V21H21V3ZM3 2C2.44772 2 2 2.44772 2 3V21C2 21.5523 2.44772 22 3 22H21C21.5523 22 22 21.5523 22 21V3C22 2.44772 21.5523 2 21 2H3Z" fill="black"/>
<path fill-rule="evenodd" clip-rule="evenodd" d="M21 8H3V3H21V8ZM3 9C2.44772 9 2 8.55228 2 8V3C2 2.44772 2.44772 2 3 2H21C21.5523 2 22 2.44772 22 3V8C22 8.55228 21.5523 9 21 9H3Z" fill="black"/>
<path fill-rule="evenodd" clip-rule="evenodd" d="M16.5 14C16.5 16.4853 14.4853 18.5 12 18.5C9.51472 18.5 7.5 16.4853 7.5 14V12C7.5 11.7239 7.72386 11.5 8 11.5C8.27614 11.5 8.5 11.7239 8.5 12V14C8.5 15.933 10.067 17.5 12 17.5C13.933 17.5 15.5 15.933 15.5 14V12C15.5 11.7239 15.7239 11.5 16 11.5C16.2761 11.5 16.5 11.7239 16.5 12V14Z" fill="black"/>
</svg>
