<svg width="24" height="24" viewBox="0 0 24 24" fill="none" xmlns="http://www.w3.org/2000/svg">
<path fill-rule="evenodd" clip-rule="evenodd" d="M16 9.5C16 13.0899 13.0899 16 9.5 16C5.91015 16 3 13.0899 3 9.5C3 5.91015 5.91015 3 9.5 3C13.0899 3 16 5.91015 16 9.5ZM13.7657 15.6696C12.5547 16.5085 11.0847 17 9.5 17C5.35786 17 2 13.6421 2 9.5C2 5.35786 5.35786 2 9.5 2C13.6421 2 17 5.35786 17 9.5C17 11.6958 16.0563 13.6713 14.5524 15.0429L20.4489 20.9393C20.6441 21.1346 20.6441 21.4512 20.4489 21.6464C20.2536 21.8417 19.937 21.8417 19.7417 21.6464L13.7822 15.6869C13.7765 15.6812 13.771 15.6755 13.7657 15.6696Z" fill="black"/>
<path fill-rule="evenodd" clip-rule="evenodd" d="M9 12.5L8.99999 6.5C8.99999 6.22386 9.22385 6 9.49999 6C9.77613 6 9.99999 6.22386 9.99999 6.5L10 12.5C10 12.7761 9.77614 13 9.5 13C9.22386 13 9 12.7761 9 12.5Z" fill="black"/>
<path fill-rule="evenodd" clip-rule="evenodd" d="M13 9.5C13 9.77614 12.7761 10 12.5 10H6.5C6.22386 10 6 9.77614 6 9.5C6 9.22386 6.22386 9 6.5 9H12.5C12.7761 9 13 9.22386 13 9.5Z" fill="black"/>
</svg>
