<?xml version="1.0" encoding="utf-8"?>
<!-- Generator: Adobe Illustrator 26.3.1, SVG Export Plug-In . SVG Version: 6.00 Build 0)  -->
<svg version="1.1" id="Layer_1" xmlns="http://www.w3.org/2000/svg" xmlns:xlink="http://www.w3.org/1999/xlink" x="0px" y="0px"
	 viewBox="0 0 187.1 38" style="enable-background:new 0 0 187.1 38;" xml:space="preserve">
<style type="text/css">
	.st0{display:none;}
	.st1{display:inline;fill:#FFFFFF;}
</style>
<g id="Laag_2_00000111171877526074946530000015953887098000988547_" class="st0">
	<rect x="-73.8" y="-54.8" class="st1" width="347.6" height="149.7"/>
</g>
<g>
	<path fill="#FFFFFF" d="M87.5,36.2c-2.2-0.3-2.7-1.2-4.1-2.8l-5.6-8c-0.3-0.5-0.2-1.2,0.3-1.5c2.7-2.7,4.7-6.7,8.9-7.3c3.2-2.2-6.7-0.8-7.9-1.2
		c-2.7,1.7,5.5-0.5-2.2,7.6c-0.8,0.9-2.4-2.7-2.9-3c-1.6-2.2-2-3.1,0-3.6c2.4-2-9.1-0.5-10.2-1c-0.9,0-1,1.1,0,1.2
		c2.2,0.3,2.9,1.3,4,2.9c0.3,1.2,6.3,7.7,4.8,8.9c-2.6,2.8-5.3,7.6-9.6,8c-3,2.2,7.7,0.6,9,1.1c0.8,0,0.9-1,0.1-1.2
		c-3.1-0.9-1.3-3.4,0.6-5.8c0.6-0.8,1.4-1.9,2.2-0.7c1.1,1.4,5.4,6.2,2.2,6.5c-2.7,2.3,9.2,0.7,10.3,1.3c0.1,0,0.2,0,0.3,0
		C86.8,37.3,86.5,36.9,87.5,36.2z"/>
	<path fill="#FFFFFF" d="M60.8,33c0,0,0-12.9,0-12.9c0.6-9.6-13.4-7.6-16.5,0c-0.9,3.2,3.6,1.9,4-0.2c1-3.7,3.3-5.5,6.4-3.9c1.4,0.6,1.7,3,1.7,5.9
		c-1,4.5-11.8,4-11.4,11.4c0.1,7,7.1,4.7,10.3,1.7c2.2-0.8,2.9,5,7.5,0.9C63.7,34.8,60.5,35.5,60.8,33z M51.1,34.6
		c-2.1-1.9-1.6-4.3-0.4-6.3c0.6-1.3,5.4-4.8,5.8-1.8C57.1,30.1,55.5,36.7,51.1,34.6z"/>
	<path fill="#FFFFFF" d="M44,36c-2.7-0.3-3.7-1.3-3.7-3.1L40,3.8c0-1.8,1.3-2,4-2.3C45.2,1.4,45.4,0,44,0c-3.5,1-9.2-1.8-11,2.3
		c-0.5-0.5-8.3,27-9.5,21.9c0,0-10.4-22-10.4-22C12.5,0,10,0.6,8.3,0.5c-1,0-9.5-1-5.8,1.2c2.7,0.3,5,0.7,5,3.2
		c-1.4,8.8-1.8,18-1.7,27.9c0,2.5-2.1,2.9-4.8,3.2c-3.7,2.2,4.6,1.2,5.8,1.2c1.1-0.3,11.4,1.3,7.4-1.2c-2.6-0.3-4.9-0.7-5-3.1
		c0,0,0,0,0-0.1c0,0,0,0.1,0,0.1c0-0.7-1.7-27,1-22L21,35.6c0.6,1.3,1.1,1.9,1.8,0.1l9.5-25c0.6-1.6,1.2-1.4,1.3,0.4l0.3,21.7
		c-0.1,1.8-1,2.8-3.7,3.1c-3.5,2.1,3.4,1.4,4.5,1.3C35.9,36.8,48.5,38.6,44,36z"/>
	<path fill="#FFFFFF" d="M130.9,36c-2.7-0.3-3.7-1.3-3.7-3.1l-0.3-29c0.1-1.8,1.3-2,4-2.3c3.6-2.2-3.9-1.3-5-1.3c-2.3,0.1-5.1-1-6,2
		c-0.7,0.2-8.2,26.9-9.5,21.9c0,0-10.4-22-10.4-22c-0.5-2.1-3.1-1.6-4.8-1.6c-1.1,0-9.5-1-5.8,1.2c2.7,0.3,5,0.7,5,3.2
		c-1.4,8.8-1.8,18-1.7,27.9c0,2.5-2.2,2.9-4.8,3.2c-0.1,0.1-0.2,0.1-0.2,0.1c0.1,0,0.1,0,0.2,0c1,0.1,0.7,1,0,1.1
		c1.6,0.2,5.3-0.2,5.9-0.2c1-0.2,11.5,1.2,7.4-1.2c-2.7-0.3-4.9-0.7-5-3.1c0,0,0,0,0-0.1c0,0,0,0.1,0,0.1c0-0.3-1.7-27,1-22
		c0,0,10.8,24.7,10.8,24.7c0.6,1.3,1.1,1.9,1.8,0.1l9.5-25c0.6-1.6,1.2-1.4,1.3,0.4l0.3,21.7c0,1.8-1,2.8-3.7,3.1
		c-4.3,2.7,8.1,0.8,9.4,1.3C127.5,37.4,134.3,38.1,130.9,36z"/>
	<path fill="#FFFFFF" d="M184.8,33c0,0,0-12.9,0-12.9c0.6-9.6-13.4-7.6-16.5,0c-0.9,3.2,3.6,1.9,4-0.2c0.8-1.9,1.3-3.4,2.3-4c4.3-1.7,6,1.1,5.7,6
		c0.3,3.9-16.1,4.9-10.2,14.8c3.1,3,6.4,0.2,9.2-1.7c2.2-0.8,2.9,5,7.5,0.9C187.7,34.8,184.5,35.5,184.8,33z M179.1,33.9
		c-4.4,3.6-6.9-2.5-4.4-5.6c0.6-1.3,5.4-4.8,5.8-1.8C180.5,28.6,180.6,32.5,179.1,33.9z"/>
	<path fill="#FFFFFF" d="M164.3,14c-2.6-0.3-5.9,6.7-5.6,0c-0.2-2.8-4.8,3-6.2,2.8c-1,0.5-1.1,1.2,0.1,1.7c3.6,2.6,0.9,10,1.7,14.1
		c0,1.9-0.4,3.2-3,3.5c-3.7,2.4,4.8,0.8,5.8,0.8c1.2-0.2,10.4,1.1,6.7-1.1c-2.7-0.3-4.7-0.6-4.7-3.1C159.6,30,157,18,161.6,18
		c0.7-0.1,1.3,0.4,2,1C168.4,23.2,171.2,12.9,164.3,14z"/>
	<path fill="#FFFFFF" d="M147.6,33c0,0,0-12.9,0-12.9c0.6-9.6-13.4-7.6-16.5,0c-0.9,3.2,3.6,1.9,4-0.2c0.8-1.9,1.3-3.4,2.3-4c4.3-1.7,6,1.1,5.7,6
		c0.3,3.9-16.1,5-10.2,14.8c3.1,3,6.4,0.2,9.2-1.7c2.2-0.8,2.9,5,7.5,0.9C150.4,34.8,147.2,35.5,147.6,33z M141.8,33.9
		c-4.4,3.6-6.9-2.5-4.4-5.6c0.6-1.3,5.4-4.8,5.8-1.8C143.2,28.6,143.4,32.6,141.8,33.9z"/>
</g>
</svg>
