<?xml version="1.0" encoding="iso-8859-1"?>
<!-- Generator: Adobe Illustrator 21.1.0, SVG Export Plug-In . SVG Version: 6.00 Build 0)  -->
<svg version="1.1" id="Layer_1" xmlns="http://www.w3.org/2000/svg" xmlns:xlink="http://www.w3.org/1999/xlink" x="0px" y="0px"
	 viewBox="0 0 199.177 11.074" style="enable-background:new 0 0 199.177 11.074;" xml:space="preserve">
<g id="Laag_2" style="display:none;">
	<rect x="-3.635" y="-7.218" style="display:inline;fill:#FFFFFF;" width="206.153" height="25.511"/>
</g>
<g id="Logo">
	<path fill="#FFFFFF" d="M9.017,1.535H5.284v9.397h-1.55V1.535H0V0.143h9.017C9.017,0.143,9.017,1.535,9.017,1.535z M20.486,0.001
		c3.559,0,5.806,2.531,5.806,5.537c0,2.911-2.184,5.536-5.838,5.536c-3.527,0-5.758-2.609-5.758-5.536
		C14.696,2.548,16.99,0.001,20.486,0.001z M20.486,9.65c2.42,0,4.208-1.756,4.208-4.112c0-2.373-1.788-4.113-4.208-4.113
		c-2.405,0-4.192,1.74-4.192,4.113C16.294,7.894,18.081,9.65,20.486,9.65z M43.63,10.932h-1.55v-8.4h-0.032l-3.322,4.177h-0.253
		l-3.322-4.177h-0.032v8.4h-1.55V0.143h1.456l3.575,4.43l3.591-4.43h1.439C43.63,0.143,43.63,10.932,43.63,10.932z M62.455,10.932
		h-1.55v-8.4h-0.032l-3.322,4.177h-0.253l-3.323-4.177h-0.031v8.4h-1.551V0.143h1.456l3.575,4.43l3.591-4.43h1.439L62.455,10.932
		L62.455,10.932z M76.866,0.143h1.867L74.73,5.237v5.695h-1.55V5.221l-4.002-5.078h1.867l2.895,3.718L76.866,0.143z M120.674,10.932
		h-1.549V6.234h-6.043v4.698h-1.551V0.143h1.551v4.698h6.043V0.143h1.549V10.932z M128.646,10.932h-1.549V0.143h1.549V10.932z
		 M136.557,9.54h4.873v1.393h-6.424V0.143h1.551V9.54z M151.641,1.535h-4.209v2.99h4.209v1.393h-4.209v5.015h-1.551V0.143h5.76
		V1.535z M158.615,10.932h-1.549V0.143h1.549V10.932z M173.375,10.188c-1.439,0.633-2.609,0.886-4.111,0.886
		c-3.307,0-5.744-2.31-5.744-5.473c0-3.18,2.5-5.601,5.791-5.601c1.266,0,2.15,0.206,3.844,0.918v1.566
		c-1.266-0.695-2.578-1.06-3.875-1.06c-2.342,0-4.162,1.788-4.162,4.129c0,2.404,1.805,4.097,4.367,4.097
		c0.838,0,1.598-0.19,2.342-0.427V7.008h-2.074V5.616h3.623L173.375,10.188L173.375,10.188z M185.398,1.535h-4.572v3.26h4.414v1.392
		h-4.414V9.54h4.715v1.393h-6.266V0.143h6.123L185.398,1.535L185.398,1.535z M193.56,0.143c2.184,0,3.545,1.155,3.545,3.021
		c0,1.25-0.648,2.183-1.805,2.642c0.98,0.648,1.582,1.646,2.404,2.99c0.459,0.743,0.728,1.107,1.473,2.136h-1.852l-1.424-2.215
		c-1.424-2.215-2.072-2.468-2.863-2.468h-0.648v4.683h-1.551V0.143H193.56z M192.391,4.857h0.996c1.662,0,2.137-0.854,2.121-1.756
		c-0.018-1.013-0.617-1.629-2.121-1.629h-0.996V4.857z M102.75,3.119h-8.297v4.838h8.297V3.119z M86.155,2.829h16.595V0.144H86.155
		V2.829z M86.155,10.919h16.595V8.22H86.155V10.919z"/>
</g>
</svg>
