<svg width="80" height="20" viewBox="0 0 80 20" fill="none" xmlns="http://www.w3.org/2000/svg">
<g clip-path="url(#clip0_1_76)">
<path fill-rule="evenodd" clip-rule="evenodd" d="M29.814 4.354H25.4C25.2538 4.35391 25.1124 4.40605 25.0013 4.50104C24.8902 4.59602 24.8166 4.72759 24.794 4.872L23.01 16.186C23.0017 16.2385 23.005 16.2922 23.0195 16.3433C23.034 16.3944 23.0595 16.4417 23.0941 16.4821C23.1287 16.5224 23.1716 16.5547 23.22 16.5768C23.2683 16.5989 23.3209 16.6102 23.374 16.61H25.48C25.782 16.61 26.039 16.391 26.086 16.092L26.567 13.041C26.5895 12.8965 26.6629 12.7648 26.7741 12.6698C26.8852 12.5748 27.0268 12.5227 27.173 12.523H28.569C31.476 12.523 33.153 11.116 33.591 8.329C33.789 7.109 33.6 6.152 33.029 5.481C32.402 4.744 31.29 4.354 29.814 4.354ZM30.323 8.486C30.081 10.07 28.872 10.07 27.702 10.07H27.036L27.503 7.113C27.5168 7.02662 27.5609 6.94797 27.6274 6.89116C27.6939 6.83435 27.7785 6.8031 27.866 6.803H28.172C28.968 6.803 29.72 6.803 30.108 7.257C30.34 7.527 30.411 7.93 30.323 8.487V8.486ZM43.003 8.435H40.89C40.8023 8.43486 40.7175 8.46601 40.6508 8.52284C40.5841 8.57967 40.5398 8.65845 40.526 8.745L40.433 9.337L40.285 9.123C39.828 8.459 38.808 8.237 37.79 8.237C35.455 8.237 33.46 10.005 33.072 12.486C32.87 13.723 33.157 14.906 33.859 15.732C34.503 16.49 35.425 16.806 36.521 16.806C38.401 16.806 39.445 15.596 39.445 15.596L39.351 16.184C39.3426 16.2365 39.3457 16.2903 39.3601 16.3415C39.3745 16.3927 39.3998 16.4402 39.4343 16.4807C39.4688 16.5212 39.5117 16.5537 39.56 16.576C39.6082 16.5984 39.6608 16.6099 39.714 16.61H41.617C41.919 16.61 42.175 16.39 42.223 16.092L43.365 8.86C43.3736 8.80758 43.3706 8.75391 43.3563 8.70274C43.3421 8.65157 43.3169 8.60412 43.2824 8.56368C43.248 8.52324 43.2051 8.49078 43.1569 8.46856C43.1086 8.44634 43.0561 8.43489 43.003 8.435ZM40.057 12.548C39.854 13.755 38.895 14.565 37.674 14.565C37.06 14.565 36.57 14.368 36.254 13.995C35.943 13.625 35.824 13.098 35.924 12.511C36.114 11.314 37.088 10.477 38.291 10.477C38.891 10.477 39.379 10.677 39.7 11.053C40.022 11.433 40.15 11.963 40.057 12.548ZM54.255 8.435H52.132C52.0319 8.43518 51.9333 8.45988 51.8449 8.50694C51.7565 8.55401 51.681 8.62201 51.625 8.705L48.696 13.018L47.455 8.873C47.4169 8.74638 47.3391 8.6354 47.233 8.5565C47.1269 8.4776 46.9982 8.435 46.866 8.435H44.78C44.7214 8.43488 44.6636 8.44876 44.6114 8.47548C44.5593 8.50221 44.5142 8.541 44.4801 8.58864C44.446 8.63628 44.4237 8.69139 44.4151 8.74937C44.4066 8.80736 44.412 8.86654 44.431 8.922L46.77 15.785L44.571 18.889C44.5322 18.9441 44.5092 19.0087 44.5047 19.0759C44.5001 19.1431 44.514 19.2103 44.5449 19.2701C44.5759 19.3299 44.6226 19.3801 44.6801 19.4152C44.7376 19.4502 44.8036 19.4689 44.871 19.469H46.991C47.193 19.469 47.381 19.372 47.495 19.206L54.557 9.013C54.5953 8.95782 54.6178 8.8932 54.6221 8.82614C54.6263 8.75908 54.6121 8.69214 54.581 8.63259C54.5498 8.57303 54.503 8.52313 54.4455 8.4883C54.3881 8.45347 54.3222 8.43504 54.255 8.435Z" fill="#253B80"/>
<path fill-rule="evenodd" clip-rule="evenodd" d="M61.285 4.354H56.872C56.726 4.35415 56.5848 4.4064 56.4739 4.50136C56.363 4.59632 56.2896 4.72776 56.267 4.872L54.483 16.186C54.4748 16.2383 54.478 16.2918 54.4924 16.3428C54.5068 16.3938 54.532 16.441 54.5664 16.4813C54.6008 16.5216 54.6435 16.5539 54.6916 16.5762C54.7397 16.5984 54.792 16.6099 54.845 16.61H57.11C57.32 16.61 57.5 16.457 57.533 16.248L58.039 13.041C58.0615 12.8965 58.1349 12.7648 58.2461 12.6698C58.3572 12.5748 58.4988 12.5227 58.645 12.523H60.041C62.948 12.523 64.625 11.116 65.063 8.329C65.261 7.109 65.071 6.152 64.5 5.481C63.874 4.744 62.762 4.354 61.285 4.354ZM61.795 8.486C61.554 10.07 60.344 10.07 59.174 10.07H58.508L58.976 7.113C58.9894 7.02645 59.0334 6.94756 59.1 6.89068C59.1666 6.8338 59.2514 6.80269 59.339 6.803H59.644C60.44 6.803 61.192 6.803 61.581 7.257C61.812 7.527 61.883 7.93 61.794 8.487L61.795 8.486ZM74.474 8.435H72.362C72.2744 8.43469 72.1896 8.4658 72.123 8.52268C72.0564 8.57956 72.0124 8.65845 71.999 8.745L71.906 9.337L71.757 9.123C71.3 8.459 70.281 8.237 69.263 8.237C66.928 8.237 64.934 10.005 64.546 12.486C64.345 13.723 64.63 14.906 65.332 15.732C65.977 16.49 66.897 16.806 67.994 16.806C69.874 16.806 70.918 15.596 70.918 15.596L70.824 16.184C70.8156 16.2366 70.8187 16.2904 70.8332 16.3417C70.8476 16.393 70.873 16.4406 70.9076 16.4811C70.9422 16.5216 70.9852 16.5541 71.0336 16.5763C71.0821 16.5986 71.1347 16.6101 71.188 16.61H73.09C73.392 16.61 73.648 16.39 73.695 16.092L74.838 8.86C74.8462 8.80746 74.843 8.75376 74.8285 8.70259C74.814 8.65143 74.7885 8.60401 74.7539 8.56362C74.7193 8.52323 74.6764 8.49081 74.6281 8.46861C74.5797 8.44641 74.5272 8.43494 74.474 8.435ZM71.528 12.548C71.326 13.755 70.366 14.565 69.145 14.565C68.532 14.565 68.041 14.368 67.725 13.995C67.414 13.625 67.296 13.098 67.395 12.511C67.585 11.314 68.559 10.477 69.762 10.477C70.362 10.477 70.85 10.677 71.171 11.053C71.494 11.433 71.621 11.963 71.528 12.548ZM76.965 4.665L75.154 16.185C75.1456 16.2374 75.1487 16.291 75.163 16.3421C75.1773 16.3932 75.2026 16.4406 75.237 16.481C75.2714 16.5214 75.3142 16.5538 75.3623 16.5761C75.4105 16.5984 75.4629 16.6099 75.516 16.61H77.336C77.639 16.61 77.896 16.391 77.943 16.092L79.728 4.78C79.7362 4.72763 79.733 4.6741 79.7186 4.62307C79.7042 4.57205 79.679 4.52474 79.6446 4.48438C79.6102 4.44402 79.5675 4.41156 79.5194 4.38923C79.4714 4.3669 79.419 4.35523 79.366 4.355H77.327C77.2398 4.35554 77.1555 4.38697 77.0892 4.44372C77.023 4.50047 76.9789 4.57887 76.965 4.665Z" fill="#179BD7"/>
<path fill-rule="evenodd" clip-rule="evenodd" d="M4.68799 18.809L5.02499 16.666L4.27399 16.648H0.68399L3.17999 0.834004C3.18719 0.785592 3.21155 0.741382 3.24863 0.70944C3.28572 0.677497 3.33305 0.659951 3.38199 0.660004H9.43199C11.442 0.660004 12.828 1.078 13.552 1.903C13.892 2.29 14.108 2.694 14.212 3.14C14.322 3.607 14.324 4.165 14.217 4.845L14.209 4.895V5.331L14.549 5.524C14.834 5.675 15.061 5.849 15.235 6.047C15.525 6.378 15.714 6.799 15.793 7.297C15.875 7.811 15.848 8.421 15.713 9.112C15.559 9.907 15.308 10.599 14.97 11.165C14.6718 11.6723 14.2709 12.1117 13.793 12.455C13.343 12.775 12.81 13.016 12.207 13.171C11.5587 13.331 10.8927 13.4083 10.225 13.401H9.75499C9.41699 13.401 9.08999 13.521 8.83399 13.739C8.57755 13.9588 8.40745 14.2625 8.35399 14.596L8.31799 14.789L7.72199 18.566L7.69499 18.705C7.68799 18.749 7.67499 18.771 7.65699 18.785C7.63953 18.7995 7.61767 18.8076 7.59499 18.808L4.68799 18.809Z" fill="#253B80"/>
<path fill-rule="evenodd" clip-rule="evenodd" d="M14.87 4.946C14.852 5.062 14.831 5.18 14.808 5.301C14.01 9.399 11.279 10.814 7.79199 10.814H6.01699C5.81122 10.814 5.61222 10.8875 5.45597 11.0214C5.29971 11.1553 5.1965 11.3407 5.16499 11.544L4.25499 17.31L3.99799 18.944C3.98773 19.0088 3.99163 19.075 4.00942 19.1381C4.02721 19.2013 4.05847 19.2598 4.10105 19.3097C4.14363 19.3596 4.19651 19.3997 4.25605 19.4272C4.3156 19.4547 4.3804 19.4689 4.44599 19.469H7.59599C7.96799 19.469 8.28599 19.199 8.34399 18.83L8.37399 18.67L8.96799 14.908L9.00599 14.701C9.03389 14.5227 9.12459 14.3602 9.26175 14.2428C9.3989 14.1255 9.57348 14.061 9.75399 14.061H10.225C13.276 14.061 15.665 12.823 16.363 9.238C16.654 7.741 16.503 6.49 15.732 5.611C15.4875 5.33878 15.1954 5.11343 14.87 4.946Z" fill="#179BD7"/>
<path fill-rule="evenodd" clip-rule="evenodd" d="M14.035 4.614C13.7802 4.54004 13.521 4.48225 13.259 4.441C12.7412 4.36148 12.2179 4.32336 11.694 4.327H6.94999C6.76943 4.32639 6.59467 4.39069 6.45755 4.50816C6.32043 4.62564 6.23009 4.78848 6.20299 4.967L5.19299 11.358L5.16499 11.545C5.1965 11.3417 5.29971 11.1563 5.45597 11.0224C5.61223 10.8885 5.81122 10.815 6.01699 10.815H7.79199C11.279 10.815 14.01 9.398 14.808 5.301C14.832 5.18 14.852 5.061 14.87 4.946C14.6042 4.80616 14.3243 4.69487 14.035 4.614Z" fill="#222D65"/>
<path fill-rule="evenodd" clip-rule="evenodd" d="M6.20299 4.967C6.23029 4.78857 6.32068 4.62585 6.45776 4.50841C6.59483 4.39097 6.76949 4.3266 6.94999 4.327H11.694C12.2179 4.3237 12.7412 4.36215 13.259 4.442C13.5828 4.49302 13.9021 4.56925 14.214 4.67C14.45 4.748 14.668 4.84 14.87 4.946C15.108 3.432 14.868 2.401 14.05 1.468C13.147 0.44 11.518 1.13139e-07 9.43399 1.13139e-07H3.38199C3.17573 -0.000105333 2.97622 0.0734993 2.81944 0.207538C2.66267 0.341577 2.55895 0.527226 2.52699 0.731L0.00699473 16.708C-0.00484782 16.7822 -0.000487549 16.858 0.0197757 16.9303C0.0400389 17.0026 0.0757242 17.0697 0.124377 17.1269C0.17303 17.1841 0.233497 17.2301 0.301618 17.2617C0.369739 17.2933 0.443898 17.3098 0.518995 17.31H4.25499L5.19399 11.358L6.20299 4.967Z" fill="#253B80"/>
</g>
<defs>
<clipPath id="clip0_1_76">
<rect width="80" height="20" fill="white"/>
</clipPath>
</defs>
</svg>
