<svg width="25" height="24" viewBox="0 0 25 24" fill="none" xmlns="http://www.w3.org/2000/svg">
<g clip-path="url(#clip0_1_85)">
<path fill-rule="evenodd" clip-rule="evenodd" d="M23.88 0.0499992H0.0539856V23.963H23.88V16.071C23.9801 15.9147 24.0297 15.7314 24.022 15.546C24.022 15.301 23.975 15.149 23.88 15.021" fill="url(#paint0_radial_1_85)"/>
<path fill-rule="evenodd" clip-rule="evenodd" d="M2.20199 10.398L1.74299 9.28L1.28799 10.397L2.20199 10.398ZM12.299 9.953C12.207 10.009 12.099 10.011 11.969 10.011H11.155V9.389H11.979C12.096 9.389 12.218 9.394 12.297 9.439C12.384 9.479 12.437 9.567 12.437 9.687C12.437 9.809 12.387 9.907 12.299 9.953ZM18.103 10.398L17.64 9.28L17.179 10.397L18.103 10.398ZM7.28499 11.607H6.59799L6.59599 9.413L5.62399 11.607H5.03599L4.06299 9.41V11.606H2.69999L2.44199 10.981H1.04999L0.789986 11.606H0.0619856L1.25999 8.805H2.25499L3.39399 11.458V8.805H4.48699L5.36299 10.705L6.16899 8.805H7.28399L7.28499 11.607ZM10.021 11.607H7.78399V8.805H10.021V9.389H8.45299V9.894H9.98299V10.468H8.45299V11.028H10.021V11.607ZM13.175 9.56C13.1796 9.71723 13.1372 9.87226 13.0531 10.0052C12.969 10.1381 12.8471 10.2429 12.703 10.306C12.8327 10.3537 12.9473 10.4352 13.035 10.542C13.129 10.682 13.145 10.806 13.145 11.056V11.606H12.47L12.467 11.254C12.467 11.085 12.484 10.843 12.362 10.708C12.264 10.609 12.115 10.588 11.874 10.588H11.154V11.607H10.485V8.805H12.025C12.368 8.805 12.62 8.815 12.836 8.939C13.048 9.064 13.176 9.247 13.176 9.559L13.175 9.56ZM14.247 11.607H13.564V8.805H14.247V11.607ZM22.174 11.607H21.225L19.955 9.504V11.607H18.592L18.332 10.982H16.94L16.687 11.607H15.904C15.578 11.607 15.166 11.535 14.933 11.297C14.697 11.059 14.575 10.737 14.575 10.227C14.575 9.812 14.648 9.432 14.935 9.132C15.152 8.908 15.491 8.805 15.953 8.805H16.601V9.405H15.967C15.722 9.405 15.584 9.442 15.451 9.571C15.337 9.689 15.259 9.912 15.259 10.206C15.259 10.506 15.319 10.723 15.443 10.864C15.546 10.974 15.733 11.009 15.91 11.009H16.21L17.154 8.805H18.158L19.292 11.455V8.805H20.312L21.488 10.756V8.806H22.174V11.606V11.607ZM0.0539856 12.157H1.19799L1.45599 11.535H2.03399L2.29099 12.157H4.54299V11.681L4.74299 12.159H5.91299L6.11299 11.674V12.157H11.708L11.706 11.136H11.814C11.89 11.138 11.912 11.146 11.912 11.27V12.157H14.806V11.919C15.039 12.044 15.402 12.157 15.88 12.157H17.097L17.357 11.535H17.935L18.19 12.157H20.536V11.567L20.891 12.157H22.771V8.25H20.911V8.711L20.651 8.25H18.741V8.711L18.501 8.25H15.923C15.491 8.25 15.113 8.31 14.806 8.478V8.25H13.026V8.478C12.831 8.305 12.566 8.25 12.27 8.25H5.76799L5.33199 9.259L4.88399 8.249H2.83599V8.711L2.61099 8.25H0.864986L0.0539856 10.107V12.157ZM24.88 14.224H23.66C23.538 14.224 23.457 14.228 23.389 14.274C23.319 14.32 23.291 14.387 23.291 14.476C23.291 14.582 23.351 14.654 23.437 14.685C23.508 14.709 23.584 14.717 23.695 14.717L24.058 14.727C24.425 14.735 24.669 14.798 24.818 14.952C24.845 14.973 24.862 14.997 24.88 15.022V14.224ZM24.88 16.071C24.718 16.309 24.4 16.43 23.972 16.43H22.678V15.829H23.966C24.094 15.829 24.183 15.812 24.237 15.759C24.2622 15.7359 24.2824 15.7078 24.2962 15.6764C24.31 15.6451 24.317 15.6112 24.317 15.577C24.3185 15.5418 24.3119 15.5067 24.2976 15.4745C24.2834 15.4422 24.262 15.4136 24.235 15.391C24.186 15.349 24.115 15.329 23.999 15.329C23.369 15.308 22.585 15.349 22.585 14.462C22.585 14.055 22.844 13.628 23.546 13.628H24.88V13.07H23.64C23.267 13.07 22.995 13.16 22.803 13.299V13.069H20.97C20.676 13.069 20.332 13.143 20.17 13.299V13.069H16.896V13.299C16.636 13.111 16.196 13.069 15.993 13.069H13.833V13.299C13.627 13.099 13.169 13.069 12.89 13.069H10.473L9.91999 13.669L9.40199 13.069H5.79199V16.98H9.33399L9.90399 16.372L10.441 16.98L12.624 16.982V16.062H12.839C13.129 16.067 13.47 16.055 13.771 15.925V16.98H15.572V15.961H15.659C15.77 15.961 15.781 15.966 15.781 16.076V16.98H21.251C21.599 16.98 21.962 16.891 22.163 16.73V16.98H23.898C24.259 16.98 24.612 16.93 24.88 16.8V16.071ZM22.209 14.951C22.339 15.087 22.409 15.257 22.409 15.546C22.409 16.148 22.033 16.43 21.357 16.43H20.053V15.829H21.352C21.479 15.829 21.569 15.812 21.626 15.759C21.6509 15.7357 21.6708 15.7075 21.6844 15.6762C21.698 15.6449 21.705 15.6111 21.705 15.577C21.7058 15.5419 21.6988 15.507 21.6846 15.4749C21.6705 15.4428 21.6494 15.4141 21.623 15.391C21.572 15.349 21.501 15.329 21.384 15.329C20.758 15.308 19.974 15.349 19.974 14.462C19.974 14.055 20.229 13.628 20.931 13.628H22.274V14.224H21.045C20.924 14.224 20.845 14.229 20.777 14.274C20.704 14.32 20.677 14.387 20.677 14.476C20.677 14.582 20.739 14.654 20.823 14.685C20.9072 14.7104 20.9951 14.7213 21.083 14.717L21.444 14.727C21.808 14.735 22.057 14.797 22.209 14.951ZM16.166 14.779C16.076 14.832 15.966 14.836 15.836 14.836H15.022V14.207H15.846C15.966 14.207 16.085 14.21 16.166 14.257C16.253 14.303 16.305 14.39 16.305 14.51C16.305 14.63 16.253 14.726 16.166 14.779ZM16.571 15.128C16.72 15.183 16.841 15.281 16.899 15.363C16.993 15.5 17.007 15.627 17.009 15.874V16.43H16.337V16.08C16.337 15.91 16.353 15.661 16.229 15.53C16.131 15.43 15.982 15.406 15.738 15.406H15.022V16.43H14.349V13.627H15.895C16.235 13.627 16.481 13.642 16.701 13.76C16.912 13.887 17.045 14.062 17.045 14.382C17.05 14.5396 17.0075 14.695 16.923 14.828C16.8384 14.9611 16.7158 15.0656 16.571 15.128ZM17.417 13.628H19.652V14.207H18.083V14.717H19.613V15.288H18.083V15.846L19.652 15.848V16.43H17.417V13.627V13.628ZM12.898 14.921H12.033V14.207H12.906C13.148 14.207 13.316 14.306 13.316 14.551C13.316 14.793 13.156 14.921 12.898 14.921ZM11.366 16.175L10.338 15.033L11.366 13.928V16.175ZM8.70999 15.845H7.06399V15.288H8.53399V14.716H7.06399V14.207H8.74299L9.47499 15.024L8.70999 15.845ZM14.035 14.551C14.035 15.329 13.454 15.49 12.868 15.49H12.033V16.43H10.73L9.90499 15.502L9.04799 16.43H6.39699V13.627H9.08999L9.91399 14.546L10.766 13.627H12.906C13.437 13.627 14.035 13.775 14.035 14.551Z" fill="white"/>
</g>
<defs>
<radialGradient id="paint0_radial_1_85" cx="0" cy="0" r="1" gradientUnits="userSpaceOnUse" gradientTransform="translate(420.49 417.714) scale(2235.97 2230.77)">
<stop stop-color="#9DD5F6"/>
<stop offset="0.0711" stop-color="#98D3F5"/>
<stop offset="0.1575" stop-color="#89CEF3"/>
<stop offset="0.2516" stop-color="#70C6EF"/>
<stop offset="0.3514" stop-color="#4EBBEA"/>
<stop offset="0.4546" stop-color="#23ADE3"/>
<stop offset="0.5" stop-color="#0DA6E0"/>
<stop offset="1" stop-color="#2E77BC"/>
</radialGradient>
<clipPath id="clip0_1_85">
<rect width="25" height="24" fill="white"/>
</clipPath>
</defs>
</svg>
