<svg width="24" height="24" viewBox="0 0 24 24" fill="none" xmlns="http://www.w3.org/2000/svg">
<g clip-path="url(#clip0_1_90)">
<path fill-rule="evenodd" clip-rule="evenodd" d="M5.248 0.0319977C8.128 0.0319977 12.768 1.856 15.84 3.552C19.232 5.44 24 9.248 24 11.872C24 14.656 19.104 18.368 15.84 20.192C12.864 21.824 8.32 23.744 5.344 23.744C4.544 23.744 3.904 23.616 3.424 23.36C1.088 22.048 0 16.48 0 11.872C0 9.536 0.288 7.072 0.832 5.024C1.472 2.592 2.368 0.991998 3.424 0.383998C3.872 0.159998 4.48 0.0319977 5.248 0.0319977Z" fill="#A6ACB2"/>
<path fill-rule="evenodd" clip-rule="evenodd" d="M23.2 11.936C23.2 9.952 19.456 6.464 15.456 4.256C10.816 1.728 5.56799 0.256 3.83999 1.184C1.88799 2.272 0.799988 7.712 0.799988 11.936C0.799988 16.192 1.82399 21.568 3.83999 22.688C5.69599 23.712 10.72 22.208 15.424 19.584C19.52 17.376 23.2 14.048 23.2 11.936Z" fill="url(#paint0_radial_1_90)"/>
<path fill-rule="evenodd" clip-rule="evenodd" d="M17.952 13.952L17.92 11.936C17.92 11.488 17.76 11.296 17.408 11.296C17.2593 11.2937 17.1137 11.3385 16.992 11.424C16.832 11.52 16.736 11.584 16.672 11.616L16.64 11.648V13.92C16.64 13.92 16.64 13.952 16.608 13.952H15.712C15.712 13.952 15.68 13.952 15.68 13.92V10.72C15.68 10.656 15.712 10.624 15.776 10.624H16.576C16.576 10.624 16.608 10.624 16.608 10.656V10.912C16.608 10.912 16.608 10.944 16.64 10.944H16.672L16.704 10.912C16.8 10.848 16.96 10.752 17.056 10.72C17.28 10.624 17.504 10.592 17.696 10.592C18.432 10.592 18.816 11.008 18.816 11.808V13.952C18.816 13.952 18.816 13.984 18.784 13.984L17.952 13.952ZM19.616 13.952C19.584 13.952 19.584 13.952 19.616 13.952L19.584 9.024C19.584 8.992 19.584 8.992 19.616 8.992C19.68 8.992 20.16 9.312 20.32 9.472C20.448 9.6 20.512 9.792 20.512 9.952V13.888C20.512 13.888 20.512 13.92 20.48 13.92H19.616" fill="white"/>
<path fill-rule="evenodd" clip-rule="evenodd" d="M9.79201 12.288C9.79201 13.472 9.02401 14.016 8.06401 14.016C7.10401 14.016 6.33601 13.472 6.33601 12.288C6.33601 11.104 7.10401 10.56 8.06401 10.56C9.02401 10.56 9.79201 11.104 9.79201 12.288ZM8.83201 12.288C8.83201 11.648 8.51201 11.392 8.09601 11.392C7.68001 11.392 7.36001 11.68 7.36001 12.288C7.36001 12.864 7.68001 13.184 8.09601 13.184C8.51201 13.216 8.83201 12.896 8.83201 12.288ZM14.304 9.728C14.304 9.696 14.304 9.696 14.272 9.696C14.208 9.696 13.696 10.016 13.568 10.176C13.4456 10.306 13.377 10.4775 13.376 10.656V12.8C13.376 13.728 13.92 14.016 14.496 14.016C14.816 14.016 15.04 13.984 15.168 13.888C15.2 13.888 15.232 13.856 15.232 13.792V13.184C15.232 13.152 15.232 13.152 15.2 13.152C15.168 13.152 14.944 13.248 14.816 13.248C14.528 13.248 14.336 13.12 14.336 12.64V11.424C14.336 11.392 14.336 11.392 14.368 11.392H15.168C15.2 11.392 15.2 11.392 15.2 11.36V10.72C15.2 10.656 15.168 10.624 15.104 10.624H14.368C14.336 10.624 14.336 10.624 14.336 10.592L14.304 9.728ZM2.75201 10.752C2.75201 10.688 2.81601 10.656 2.84801 10.656H4.09601C5.34401 10.656 5.98401 11.392 5.98401 12.352C5.98401 13.312 5.28001 13.984 4.09601 13.984H3.71201C3.68001 13.984 3.68001 13.984 3.68001 14.016V15.584C3.68001 15.616 3.68001 15.616 3.64801 15.616C3.58401 15.616 3.07201 15.296 2.94401 15.136C2.82163 15.006 2.75302 14.8345 2.75201 14.656V10.752ZM5.05601 12.288C5.05601 11.872 4.80001 11.488 4.09601 11.488H3.71201C3.68001 11.488 3.68001 11.488 3.68001 11.52V13.056C3.68001 13.088 3.68001 13.088 3.71201 13.088H4.09601C4.92801 13.088 5.05601 12.512 5.05601 12.288ZM12.48 12.16C12.288 12.032 12.032 11.968 11.808 11.936C11.776 11.936 11.616 11.904 11.584 11.872C11.296 11.808 11.072 11.744 11.072 11.584C11.072 11.424 11.232 11.328 11.456 11.328C11.8497 11.3392 12.2389 11.4148 12.608 11.552C12.64 11.552 12.672 11.552 12.672 11.52V10.88C12.672 10.848 12.64 10.784 12.608 10.784C12.2785 10.668 11.9332 10.6032 11.584 10.592C11.136 10.592 10.784 10.688 10.528 10.88C10.4059 10.9666 10.3069 11.082 10.24 11.216C10.173 11.3499 10.14 11.4983 10.144 11.648C10.144 12.384 10.752 12.512 11.328 12.64C11.424 12.672 11.392 12.672 11.424 12.672C11.68 12.736 11.968 12.8 11.968 12.992C11.9669 13.0513 11.9441 13.1082 11.904 13.152C11.84 13.216 11.712 13.248 11.52 13.248C11.168 13.248 10.464 13.088 10.272 13.024C10.24 13.024 10.24 13.056 10.24 13.056V13.696C10.24 13.728 10.272 13.792 10.304 13.792C10.304 13.792 10.912 13.984 11.456 13.984C12.448 13.984 12.96 13.6 12.96 12.896C12.864 12.576 12.736 12.32 12.48 12.16Z" fill="#383792"/>
<path fill-rule="evenodd" clip-rule="evenodd" d="M6.624 9.792C6.56 9.792 6.496 9.76 6.496 9.664V9.28C6.496 9.184 6.56 9.12 6.656 9.12H9.504C9.6 9.12 9.664 9.184 9.664 9.28V9.632C9.664 9.728 9.632 9.76 9.536 9.76H6.624V9.792ZM9.184 8.768C9.152 8.768 9.12 8.768 9.12 8.736V8.672C9.216 8.384 9.536 7.488 9.536 7.488C9.568 7.424 9.536 7.36 9.472 7.328L9.312 7.264H9.28C9.248 7.264 9.216 7.264 9.216 7.296C9.152 7.456 9.12 7.552 9.056 7.712C9.056 7.744 9.024 7.744 8.992 7.744H8.672C8.64 7.744 8.64 7.744 8.608 7.712V7.648C8.704 7.36 8.768 7.136 8.896 6.88C8.928 6.848 8.96 6.752 9.088 6.752H9.152C9.248 6.784 9.376 6.816 9.504 6.848C9.6 6.88 9.696 6.912 9.824 6.944C10.144 7.072 10.144 7.296 10.08 7.52C10.048 7.648 9.856 8.192 9.728 8.512C9.696 8.576 9.696 8.64 9.664 8.672C9.664 8.704 9.632 8.736 9.568 8.736H9.184V8.768ZM7.872 8.768C7.808 8.768 7.808 8.704 7.808 8.672C7.808 8.64 7.776 6.976 7.776 6.752C7.776 6.72 7.776 6.688 7.808 6.688C7.808 6.688 7.84 6.656 7.872 6.656H8.32C8.352 6.656 8.352 6.656 8.384 6.688C8.40219 6.70466 8.41359 6.72745 8.416 6.752C8.416 6.976 8.384 8.64 8.384 8.672C8.384 8.672 8.384 8.768 8.32 8.768H7.872ZM6.56 8.768C6.496 8.768 6.496 8.736 6.464 8.704C6.464 8.672 6.432 8.608 6.4 8.544C6.272 8.224 6.112 7.712 6.048 7.552C5.984 7.328 5.984 7.072 6.304 6.976C6.4 6.944 6.528 6.912 6.624 6.88C6.752 6.848 6.88 6.816 6.976 6.784H7.04C7.136 6.784 7.2 6.848 7.232 6.912C7.36 7.168 7.424 7.392 7.52 7.68V7.744C7.52 7.744 7.488 7.776 7.456 7.776H7.136C7.104 7.776 7.072 7.776 7.072 7.744C7.008 7.584 6.976 7.456 6.912 7.328C6.912 7.328 6.88 7.296 6.848 7.296H6.816L6.656 7.36C6.592 7.392 6.56 7.456 6.592 7.52C6.592 7.52 6.912 8.416 7.008 8.704V8.768C7.008 8.768 6.976 8.8 6.944 8.8C6.944 8.768 6.56 8.768 6.56 8.768ZM8.064 6.336C8.032 6.336 8.032 6.336 8 6.304C7.86721 6.20321 7.74879 6.08479 7.648 5.952C7.648 5.952 7.616 5.92 7.648 5.856C7.744 5.696 7.904 5.6 8.032 5.472H8.096C8.224 5.568 8.352 5.696 8.48 5.856C8.512 5.888 8.512 5.92 8.48 5.952C8.37921 6.08479 8.26079 6.20321 8.128 6.304C8.096 6.336 8.096 6.336 8.064 6.336Z" fill="white"/>
</g>
<defs>
<radialGradient id="paint0_radial_1_90" cx="0" cy="0" r="1" gradientUnits="userSpaceOnUse" gradientTransform="translate(596.886 830.736) scale(1572.57 1552.04)">
<stop stop-color="#FFC429"/>
<stop offset="1" stop-color="#F26F23"/>
</radialGradient>
<clipPath id="clip0_1_90">
<rect width="24" height="24" fill="white"/>
</clipPath>
</defs>
</svg>
