<svg width="72" height="16" viewBox="0 0 72 16" fill="none" xmlns="http://www.w3.org/2000/svg">
<g clip-path="url(#clip0_1_98)">
<path d="M71.8984 0V15.9141H0V0H71.8984Z" fill="#FECC00"/>
<path d="M23.1797 6.64844C22.8672 7.07422 22.3398 7.81641 22.0195 8.25C21.8594 8.46875 21.5664 8.87109 22.5391 8.87109C23.5664 8.87109 27.6562 8.87109 27.6562 8.87109C27.6562 8.87109 28.4844 7.74609 29.1758 6.80469C30.1172 5.52344 29.2578 2.85938 25.8906 2.85938C22.8828 2.85938 12.6445 2.85938 12.6445 2.85938L10.3477 5.98828C10.3477 5.98828 22.2539 5.98828 22.8672 5.98828C23.5 5.98828 23.4883 6.22656 23.1797 6.64844ZM19.4219 9.64453C18.4492 9.64453 18.7422 9.24219 18.9023 9.02344C19.2227 8.58984 19.7578 7.85547 20.0703 7.42578C20.3828 7.00781 20.3906 6.76562 19.7578 6.76562C19.1445 6.76562 14.0312 6.76562 14.0312 6.76562L9.41797 13.0547C9.41797 13.0547 17.6562 13.0547 20.668 13.0547C24.3828 13.0547 26.4531 10.5195 27.0898 9.64453C27.0898 9.64453 20.4492 9.64453 19.4219 9.64453ZM26.7383 13.0547H33.3398L35.8398 9.64062L29.2422 9.64453C29.2383 9.64453 26.7383 13.0547 26.7383 13.0547ZM43.7656 2.85938L41.2344 6.30469H38.2891L40.8203 2.85938H34.2227L29.8086 8.87109H45.9492L50.3633 2.85938H43.7656ZM36.2852 13.0547H42.8828L45.3828 9.64453H38.7891C38.7852 9.64453 36.2852 13.0547 36.2852 13.0547ZM0 10.9883V11.7109H9.19141L9.72266 10.9883H0ZM10.7109 9.64453H0V10.3672H10.1797L10.7109 9.64453ZM0 13.0547H8.20703L8.73438 12.332H0V13.0547ZM62.2109 11.7109H71.8984V10.9883H62.7422L62.2109 11.7109ZM61.2266 13.0547H71.8984V12.332H61.7539L61.2266 13.0547ZM63.7305 9.64453L63.1992 10.3672H71.8984V9.64453H63.7305ZM55.0859 8.87109L59.5 2.85938H52.5156C52.5117 2.85938 48.0977 8.87109 48.0977 8.87109H55.0859ZM47.5312 9.64453C47.5312 9.64453 47.0469 10.3047 46.8125 10.6211C45.9844 11.7461 46.7188 13.0547 49.4219 13.0547C52.5469 13.0547 60.0195 13.0547 60.0195 13.0547L62.5234 9.64453H47.5312Z" fill="#D50029"/>
</g>
<defs>
<clipPath id="clip0_1_98">
<rect width="72" height="16" fill="white"/>
</clipPath>
</defs>
</svg>
