<svg width="60" height="20" viewBox="0 0 60 20" fill="none" xmlns="http://www.w3.org/2000/svg">
<g clip-path="url(#clip0_1_71)">
<path fill-rule="evenodd" clip-rule="evenodd" d="M25.968 19.42H21.1L24.142 0.725998H29.009L25.968 19.42ZM17.007 0.727998L12.367 13.584L11.818 10.815L11.819 10.816L10.181 2.411C10.181 2.411 9.984 0.727998 7.873 0.727998H0.202L0.112 1.044C0.112 1.044 2.458 1.532 5.202 3.181L9.43 19.419H14.501L22.244 0.726998L17.007 0.727998ZM49.93 12.807L52.487 5.812L53.925 12.807H49.93ZM55.285 19.419H59.753L55.857 0.726998H51.944C50.138 0.726998 49.698 2.12 49.698 2.12L42.44 19.42H47.513L48.528 16.643H54.714L55.285 19.419ZM42.821 5.223L43.515 1.208C43.515 1.208 41.372 0.392998 39.138 0.392998C36.723 0.392998 30.988 1.449 30.988 6.581C30.988 11.411 37.719 11.471 37.719 14.006C37.719 16.541 31.682 16.088 29.69 14.489L28.966 18.686C28.966 18.686 31.138 19.741 34.459 19.741C37.78 19.741 42.79 18.021 42.79 13.342C42.79 8.482 36 8.029 36 5.916C36 3.803 40.74 4.075 42.822 5.222" fill="#005B9C"/>
<path fill-rule="evenodd" clip-rule="evenodd" d="M11.819 10.816L10.181 2.411C10.181 2.411 9.984 0.727997 7.873 0.727997H0.202L0.112 1.044C0.112 1.044 3.8 1.808 7.337 4.67C10.717 7.406 11.819 10.816 11.819 10.816Z" fill="#EFA03F"/>
</g>
<defs>
<clipPath id="clip0_1_71">
<rect width="60" height="20" fill="white"/>
</clipPath>
</defs>
</svg>
