<?xml version="1.0" encoding="UTF-8"?>
<svg id="Layer_1" data-name="Layer 1" xmlns="http://www.w3.org/2000/svg" viewBox="0 0 9033.21 2015.02">
  <defs>
    <style>
      .cls-1 {
        stroke-width: 0px;
        fill:white;
      }
    </style>
  </defs>
  <path class="cls-1" d="m4625.52,1615.33c1.11-130.05,31.78-255.33,59.29-380.88,67-305.72,135.5-611.12,203.06-916.72,34.4-155.58,119.71-263.97,281.49-296.85,171.47-34.84,329.52-1.1,461.86,115.6,61.59,54.31,112.51,121.01,166.3,183.78,35.91,41.91,66.5,88.42,102.72,130.04,88.93,102.21,213.35,114.95,323.57,34.88,127.38-92.54,254.37-185.63,381.72-278.2,97.59-70.94,201.43-129.54,321.67-151.81,110.31-20.42,217.16-16.64,307.87,61.59,76.92,66.34,124.18,151.45,124.38,252.38.2,96.99-10.72,194.59-24.08,290.91-51.74,373-168.92,728.83-290.56,1083.25-17.4,50.69-42.65,97.13-80.71,136.66-129.37,134.36-331.9,90.97-394.28-86.35-22.5-63.95-40.71-129.42-60.44-194.33-69.57-228.87-224.54-364.34-458.39-400.86-222.92-34.81-423.99,19.81-590.37,179.28-77.53,74.31-130.59,165.84-181.89,258.89-34.17,61.98-71.14,122.52-108.91,182.41-76.49,121.29-199.18,173.03-333.94,142.74-114.64-25.77-190.29-113.91-202.1-236.33-3.53-36.62-5.56-73.39-8.27-110.09Z"/>
  <path class="cls-1" d="m3524.74,294.99c-1.82,55.88-23.29,104.13-55.27,148.17-75.74,104.34-152.17,208.17-227.96,312.47-61.51,84.64-99.43,178.03-84.1,283.85,7.52,51.87,25.05,103.55,45.91,151.93,37.83,87.74,82.85,172.34,122.43,259.36,43.01,94.55,67.12,193.23,45.85,297.63-16.89,82.93-57.74,153.08-124.02,206.5-94.74,76.36-221.33,77.94-323.56-3.49-62.36-49.67-115.78-110.58-173.1-166.57-32.31-31.56-63.33-64.51-96.72-94.86-99.24-90.23-213.01-95.61-317.19-11.28-54.3,43.96-102.9,94.95-154.31,142.5-33.82,31.29-67.06,63.31-102.3,92.94-149.46,125.66-375.71,58.98-426.76-123.05-20.28-72.32-10.15-141.65,4.43-211.79,52.87-254.31,102.94-509.28,160.77-762.46,33.66-147.37,76.89-292.82,121.84-437.25,32.18-103.4,85.09-197.86,156.39-280.44,91.38-105.83,234.46-116.44,329.42-23.94,38.75,37.75,73.3,79.77,111,118.64,61.46,63.37,137.66,90.72,224.99,84.72,68.62-4.71,130.03-30.52,185.53-71.07,58.71-42.9,115.79-88.49,177.25-127.06,152.29-95.58,350.55-12.39,392.71,162.7,4.06,16.85,4.59,34.55,6.75,51.85Z"/>
  <path class="cls-1" d="m7932.94,2006.14c-142.19,2.59-267.64-11.56-384.83-68.43-70.39-34.15-133.54-78.26-180.2-142.59-35.08-48.37-52.75-102.73-53.4-162.52-.62-56.69,25.61-100.1,66.61-136.83,71.15-63.75,157.22-92.45,248.87-110.28,54.87-10.68,109.05-25.06,163.27-38.81,16.81-4.26,33.4-10.61,48.97-18.26,85.75-42.12,115.05-131.14,65.87-213.2-20.92-34.91-51.18-64.83-79.99-94.28-76.87-78.57-145.14-162.06-169.69-272.83-21.47-96.9-10.09-190.51,33.19-279.41,112.2-230.47,300.2-366.07,543.42-432.81,233.02-63.94,453.73-36.27,661.08,87.86,78.18,46.8,129.37,113.68,136.4,208.45,10.09,136.01-92.2,210.86-199.05,217.64-52.3,3.32-105,.27-157.52.21-47-.06-76.53,38.08-61.24,83.09,6.55,19.28,19.71,37.14,32.84,53.23,58.13,71.28,122.11,138.3,174.98,213.21,71.38,101.16,111.88,216.09,108.24,341.64-3.97,136.99-48.03,261.71-130.48,371.69-97.52,130.08-227.68,218.91-372.71,287.1-160.78,75.61-330.42,111.97-494.62,106.11Z"/>
  <path class="cls-1" d="m517.07,2015.01c-132.73.34-262.25-21.83-370.17-114.66-55.43-47.68-97.24-105.78-126.68-172.28-37.29-84.24-23.58-174.32,46.08-235.06,50.72-44.22,111.16-77.76,169.05-113.16,71.4-43.67,145.19-83.42,216.83-126.72,29.03-17.54,56.39-38.46,82.29-60.46,68.38-58.06,77.03-130,24.75-203.08-36.43-50.93-75.61-99.9-111.63-151.1-49.66-70.58-80.04-148.79-84.95-235.71-7.57-134.06,43.76-246.36,130.43-344.43C633.02,99.96,810.37,17.47,1020.2,2.22c171.45-12.46,330.7,27.7,478.66,113.16,77.19,44.59,133.44,106.69,148.75,198.59,12.92,77.54-9.52,146.66-63.47,200.05-41.23,40.8-91.97,72.68-140.97,104.72-39.91,26.1-84.42,45.07-125.28,69.85-82.68,50.13-100.56,111.32-54.78,195.95,24.86,45.95,52.16,91.74,85.34,131.82,128.11,154.75,137.58,323.15,55.88,498.39-83.06,178.14-226.39,297.42-402.12,378.41-152.5,70.28-313.24,111.11-485.14,121.84Z"/>
  <path class="cls-1" d="m4569.2,365.55c-21.31,109.6-44.53,247.29-75.3,383.27-56.31,248.81-114.06,497.38-176.93,744.6-53,208.39-173.25,366.41-375.4,452.19-36.09,15.32-78.76,25.27-117.35,22.63-108.12-7.4-176.12-89.49-187.66-199.75-15.25-145.7,11.68-286.12,41.98-426.28,73.71-340.93,149.67-681.38,224.87-1021.99,18.69-84.66,61.07-157.64,115.74-223.31,46-55.25,108.59-81.8,179.13-86.45,89.36-5.89,174.69,9.82,249.16,63.12,90.15,64.52,125.26,155.44,121.77,291.97Z"/>
</svg>