<?xml version="1.0" encoding="UTF-8"?>
<svg id="Layer_1" xmlns="http://www.w3.org/2000/svg" viewBox="0 0 885 274.21">
  <path fill="white" d="M885,129.35v-22.38h-62.4V2.01h-25.1v127.34h87.5ZM782.04,129.35v-22.38h-64.58v-30.38h58.4v-22.74h-58.4v-29.47h62.76V2h-87.87v127.34h89.69ZM675.07,2.01h-25.1v127.34h25.1V2.01ZM639.06,24.38V2h-100.06v22.38h37.47v104.96h25.1V24.38h37.49ZM528.09,129.35V2.01h-24.92v88.77L456.05,2.01h-31.83v127.34h25.11V39.85l48.21,89.5h30.55ZM408.75,129.35v-22.38h-64.58v-30.38h58.39v-22.74h-58.39v-29.47h62.76V2h-87.86v127.34h89.68ZM308.16,89.87c0-16.01-8.55-24.2-18.92-29.11-22.01-10.73-54.39-5.82-54.39-24.92,0-9.1,7.28-15.1,21.83-15.1,21.1,0,22.74,12.19,23.47,19.1h25.83c-2-30.56-24.74-39.84-50.21-39.84s-46.93,12.55-46.93,37.66c0,12.37,4.73,20.92,10.73,26.2,20.19,17.83,63.31,8,63.31,28.92,0,14.37-14.92,17.28-25.65,17.28-15.65,0-24.56-6.91-24.56-20.92h-26.01c.73,28.56,21.1,42.2,49.48,42.2,31.64.01,52.02-13.46,52.02-41.47M201.19,89.87c0-16.01-8.55-24.2-18.92-29.11-22.01-10.73-54.39-5.82-54.39-24.92,0-9.1,7.28-15.1,21.83-15.1,21.1,0,22.74,12.19,23.47,19.1h25.83C197.01,9.28,174.27,0,148.8,0s-46.93,12.55-46.93,37.66c0,12.37,4.73,20.92,10.73,26.2,20.19,17.83,63.31,8,63.31,28.92,0,14.37-14.92,17.28-25.65,17.28-15.65,0-24.56-6.91-24.56-20.92h-26.01c.73,28.56,21.1,42.2,49.48,42.2,31.65.01,52.02-13.46,52.02-41.47M89.68,129.35v-22.38H25.1v-30.38h58.39v-22.74H25.1v-29.47h62.76V2H0v127.34h89.68Z"/>
  <path fill="white" d="M819.15,188.52c0,10.37-5.46,20.37-22.56,20.37h-23.47v-40.38h24.01c16.38,0,22.02,9.1,22.02,20.01M845.35,187.79c0-25.65-18.55-40.93-40.93-40.93h-56.39v127.34h25.1v-43.66h27.11c14.92,0,27.1-5.28,34.74-13.83,6.73-7.45,10.37-17.46,10.37-28.92M708.37,185.43c0,13.28-12.01,17.46-23.65,17.46h-24.2v-34.75h27.83c12.74,0,20.02,6.01,20.02,17.29M730.92,235.64c-.36-12.73-6.73-20.19-17.65-23.1,14.73-6.37,20.01-17.83,20.01-30.92,0-18.37-13.46-34.75-40.38-34.75h-57.49v127.34h25.1v-50.57h28.74c10.37,0,16.19,5.64,16.92,14.92,1.09,12.92-.36,25.1,2.36,35.65h26.74c-.91-1.46-2-4.18-2.91-10.37-.71-5.46-1.07-13.29-1.44-28.2M619.96,274.2v-22.38h-64.58v-30.38h58.39v-22.74h-58.39v-29.47h62.76v-22.38h-87.86v127.34h89.68ZM522.09,146.86h-26.01l-17.83,103.33-21.1-103.33h-30.2l-20.56,103.33-19.1-103.33h-27.29l26.01,127.34h37.29l18.74-93.87,18.55,93.87h36.56l24.94-127.34ZM358.19,169.24v-22.38h-100.06v22.38h37.47v104.96h25.1v-104.96h37.49ZM247.22,274.2v-127.34h-24.92v88.77l-47.12-88.77h-31.84v127.34h25.1v-89.5l48.21,89.5h30.57ZM94.23,227.09h-33.84l16.74-60.94,17.1,60.94ZM47.48,274.2l6.91-25.47h46.02l7.28,25.47h27.47l-39.29-127.34h-36.39l-38.2,127.34h26.2Z"/>
</svg>