<svg width="24" height="24" viewBox="0 0 24 24" fill="none" xmlns="http://www.w3.org/2000/svg">
<path fill-rule="evenodd" clip-rule="evenodd" d="M14.5126 18.9864C15.0111 18.96 15.3065 19.5512 14.8965 19.8359C13.5393 20.7782 11.8391 21.3345 10.0114 21.3345C8.94176 21.3345 8.12623 21.1869 7.21055 20.8464L3.07777 21.7851L2.28082 21.9661L2.45558 21.1841L3.18688 17.9115C2.33308 16.7752 2.03418 15.6355 2.03418 14.1787C2.03418 12.2352 2.88841 10.493 4.26481 9.21423C4.5925 8.90979 5.08647 9.23485 5.04136 9.67985C5.0288 9.80369 4.97188 9.92123 4.88206 10.0074C3.73033 11.1121 3.03418 12.5845 3.03418 14.1787C3.03418 15.5235 3.31095 16.4698 4.09638 17.4528C4.17129 17.5465 4.20701 17.6589 4.20574 17.7703C4.2242 17.8424 4.22647 17.9192 4.20937 17.9957L3.61834 20.6405L7.09684 19.8504C7.20235 19.8164 7.31978 19.8171 7.43114 19.8604C8.28845 20.1938 9.00909 20.3345 10.0114 20.3345C11.6115 20.3345 13.0705 19.864 14.2359 19.0787C14.3173 19.0239 14.4146 18.9916 14.5126 18.9864Z" fill="white"/>
<path fill-rule="evenodd" clip-rule="evenodd" d="M20.9878 10.1558C20.9878 6.8098 17.9162 4 13.9998 4C10.0834 4 7.01179 6.8098 7.01179 10.1558C7.01179 13.5018 10.0834 16.3116 13.9998 16.3116C15.0037 16.3116 15.7256 16.1708 16.5842 15.8373C16.6956 15.7941 16.8131 15.7934 16.9186 15.8275L20.4026 16.6177L19.8108 13.9731C19.7936 13.8964 19.7959 13.8194 19.8145 13.7472C19.8133 13.6358 19.8491 13.5233 19.9241 13.4295C20.7107 12.4465 20.9878 11.5003 20.9878 10.1558ZM20.8336 13.8885C21.6885 12.7523 21.9878 11.6126 21.9878 10.1558C21.9878 6.15001 18.3544 3 13.9998 3C9.64514 3 6.01179 6.15001 6.01179 10.1558C6.01179 14.1616 9.64514 17.3116 13.9998 17.3116C15.071 17.3116 15.8876 17.164 16.8047 16.8233L20.9434 17.762L21.741 17.943L21.5659 17.1607L20.8336 13.8885Z" fill="white"/>
</svg>
