<svg width="16" height="16" viewBox="0 0 16 16" fill="none" xmlns="http://www.w3.org/2000/svg">
<path fill-rule="evenodd" clip-rule="evenodd" d="M1.14645 4.3464C1.34171 4.15114 1.65829 4.15114 1.85355 4.3464L8.35355 10.8464C8.54882 11.0417 8.54882 11.3582 8.35355 11.5535C8.15829 11.7488 7.84171 11.7488 7.64645 11.5535L1.14645 5.0535C0.951183 4.85824 0.951183 4.54166 1.14645 4.3464Z" fill="white"/>
<path fill-rule="evenodd" clip-rule="evenodd" d="M14.8536 4.3464C14.6583 4.15114 14.3417 4.15114 14.1464 4.3464L7.64645 10.8464C7.45118 11.0417 7.45118 11.3582 7.64645 11.5535C7.84171 11.7488 8.15829 11.7488 8.35355 11.5535L14.8536 5.0535C15.0488 4.85824 15.0488 4.54166 14.8536 4.3464Z" fill="white"/>
</svg>
