<svg width="16" height="16" viewBox="0 0 16 16" fill="none" xmlns="http://www.w3.org/2000/svg">
<path fill-rule="evenodd" clip-rule="evenodd" d="M8 14C11.3137 14 14 11.3137 14 8C14 4.68629 11.3137 2 8 2C4.68629 2 2 4.68629 2 8C2 11.3137 4.68629 14 8 14ZM8 15C11.866 15 15 11.866 15 8C15 4.13401 11.866 1 8 1C4.13401 1 1 4.13401 1 8C1 11.866 4.13401 15 8 15Z" fill="white"/>
<path fill-rule="evenodd" clip-rule="evenodd" d="M8 4.5C8.27614 4.5 8.5 4.72386 8.5 5V9C8.5 9.27614 8.27614 9.5 8 9.5C7.72386 9.5 7.5 9.27614 7.5 9V5C7.5 4.72386 7.72386 4.5 8 4.5Z" fill="white"/>
<path fill-rule="evenodd" clip-rule="evenodd" d="M10.5 9C10.5 9.27614 10.2761 9.5 10 9.5H8C7.72386 9.5 7.5 9.27614 7.5 9C7.5 8.72386 7.72386 8.5 8 8.5H10C10.2761 8.5 10.5 8.72386 10.5 9Z" fill="white"/>
</svg>
