<svg width="16" height="16" viewBox="0 0 16 16" fill="none" xmlns="http://www.w3.org/2000/svg">
<path fill-rule="evenodd" clip-rule="evenodd" d="M15 8C15 8.27576 14.7765 8.4993 14.5007 8.4993H1.5007C1.22494 8.4993 1.0014 8.27576 1.0014 8C1.0014 7.72424 1.22494 7.5007 1.5007 7.5007H14.5007C14.7765 7.5007 15 7.72424 15 8Z" fill="white"/>
<path fill-rule="evenodd" clip-rule="evenodd" d="M5.85213 12.3522C6.0492 12.1551 6.0492 11.8356 5.85213 11.6385L1.86139 7.6478C1.66432 7.45073 1.34481 7.45073 1.14774 7.6478C0.950671 7.84487 0.950671 8.16439 1.14774 8.36146L5.13848 12.3522C5.33555 12.5493 5.65506 12.5493 5.85213 12.3522Z" fill="white"/>
<path fill-rule="evenodd" clip-rule="evenodd" d="M5.85214 3.6478C6.04921 3.84487 6.04921 4.16439 5.85214 4.36146L1.86139 8.3522C1.66432 8.54927 1.34481 8.54927 1.14774 8.3522C0.950671 8.15513 0.950671 7.83561 1.14774 7.63854L5.13848 3.6478C5.33555 3.45073 5.65507 3.45073 5.85214 3.6478Z" fill="white"/>
</svg>
