<svg width="16" height="16" viewBox="0 0 16 16" fill="none" xmlns="http://www.w3.org/2000/svg">
<path fill-rule="evenodd" clip-rule="evenodd" d="M0.999996 8C0.999996 8.27576 1.2235 8.4993 1.4993 8.4993H14.4993C14.7751 8.4993 14.9986 8.27576 14.9986 8C14.9986 7.72424 14.7751 7.5007 14.4993 7.5007H1.4993C1.2235 7.5007 0.999996 7.72424 0.999996 8Z" fill="white"/>
<path fill-rule="evenodd" clip-rule="evenodd" d="M10.1479 12.3522C9.9508 12.1551 9.9508 11.8356 10.1479 11.6385L14.1386 7.6478C14.3357 7.45073 14.6552 7.45073 14.8523 7.6478C15.0493 7.84487 15.0493 8.16439 14.8523 8.36146L10.8615 12.3522C10.6644 12.5493 10.3449 12.5493 10.1479 12.3522Z" fill="white"/>
<path fill-rule="evenodd" clip-rule="evenodd" d="M10.1479 3.6478C9.95079 3.84487 9.95079 4.16439 10.1479 4.36146L14.1386 8.3522C14.3357 8.54927 14.6552 8.54927 14.8523 8.3522C15.0493 8.15513 15.0493 7.83561 14.8523 7.63854L10.8615 3.6478C10.6644 3.45073 10.3449 3.45073 10.1479 3.6478Z" fill="white"/>
</svg>
