<svg width="24" height="24" viewBox="0 0 24 24" fill="none" xmlns="http://www.w3.org/2000/svg">
<path fill-rule="evenodd" clip-rule="evenodd" d="M12 21C16.9706 21 21 16.9706 21 12C21 7.02944 16.9706 3 12 3C7.02944 3 3 7.02944 3 12C3 16.9706 7.02944 21 12 21ZM12 22C17.5228 22 22 17.5228 22 12C22 6.47715 17.5228 2 12 2C6.47715 2 2 6.47715 2 12C2 17.5228 6.47715 22 12 22Z" fill="white"/>
<path fill-rule="evenodd" clip-rule="evenodd" d="M12 18C11.7239 18 11.5 17.7761 11.5 17.5V10.5C11.5 10.2239 11.7239 10 12 10C12.2761 10 12.5 10.2239 12.5 10.5V17.5C12.5 17.7761 12.2761 18 12 18Z" fill="white"/>
<path fill-rule="evenodd" clip-rule="evenodd" d="M12 8C11.7239 8 11.5 7.77614 11.5 7.5V6.5C11.5 6.22386 11.7239 6 12 6C12.2761 6 12.5 6.22386 12.5 6.5V7.5C12.5 7.77614 12.2761 8 12 8Z" fill="white"/>
</svg>
