<svg width="24" height="24" viewBox="0 0 24 24" fill="none" xmlns="http://www.w3.org/2000/svg">
<path fill-rule="evenodd" clip-rule="evenodd" d="M21 3H3V8H21V3ZM3 2C2.44772 2 2 2.44772 2 3V8C2 8.55228 2.44772 9 3 9H21C21.5523 9 22 8.55228 22 8V3C22 2.44772 21.5523 2 21 2H3Z" fill="white"/>
<path fill-rule="evenodd" clip-rule="evenodd" d="M2.5 6.00001C2.77614 6.00001 3 6.22387 3 6.50001V10C3 10.2761 2.77614 10.5 2.5 10.5C2.22386 10.5 2 10.2761 2 10V6.50001C2 6.22387 2.22386 6.00001 2.5 6.00001ZM21.5 6.00001C21.7761 6.00001 22 6.22387 22 6.50001V20.5C22 21.3284 21.3284 22 20.5 22H3.5C2.67157 22 2 21.3284 2 20.5V18C2 17.7239 2.22386 17.5 2.5 17.5C2.77614 17.5 3 17.7239 3 18V20.5C3 20.7761 3.22386 21 3.5 21H20.5C20.7761 21 21 20.7761 21 20.5V6.50001C21 6.22387 21.2239 6.00001 21.5 6.00001Z" fill="white"/>
<path fill-rule="evenodd" clip-rule="evenodd" d="M5.30313 14.6262H15.9998C16.2759 14.6262 16.4998 14.8501 16.4999 15.1262C16.5 15.4023 16.2762 15.6262 16.0001 15.6262H5.30343C5.02728 15.6262 4.80336 15.4023 4.80328 15.1262C4.8032 14.8501 5.02699 14.6262 5.30313 14.6262Z" fill="white"/>
<path fill-rule="evenodd" clip-rule="evenodd" d="M8.48051 19.0138C8.28524 19.2091 7.96866 19.2091 7.7734 19.0138L3.88557 15.126L7.77236 11.2392C7.96763 11.0439 8.28421 11.0439 8.47947 11.2392C8.67473 11.4345 8.67473 11.751 8.47947 11.9463L5.29978 15.126L8.48051 18.3067C8.67577 18.502 8.67577 18.8186 8.48051 19.0138Z" fill="white"/>
<path fill-rule="evenodd" clip-rule="evenodd" d="M21 8H3V3H21V8ZM3 9C2.44772 9 2 8.55228 2 8V3C2 2.44772 2.44772 2 3 2H21C21.5523 2 22 2.44772 22 3V8C22 8.55228 21.5523 9 21 9H3Z" fill="white"/>
</svg>
