<svg width="24" height="24" viewBox="0 0 24 24" fill="none" xmlns="http://www.w3.org/2000/svg">
<path fill-rule="evenodd" clip-rule="evenodd" d="M14.3535 15.6464C14.5487 15.4512 14.8487 15.4346 15.0235 15.6094L20.6566 21.2425C20.8314 21.4173 20.8148 21.7172 20.6195 21.9125C20.4243 22.1078 20.1243 22.1244 19.9495 21.9496L14.3164 16.3165C14.1416 16.1417 14.1582 15.8417 14.3535 15.6464Z" fill="white"/>
<path fill-rule="evenodd" clip-rule="evenodd" d="M10 17C13.866 17 17 13.866 17 10C17 6.13401 13.866 3 10 3C6.13401 3 3 6.13401 3 10C3 13.866 6.13401 17 10 17ZM10 18C14.4183 18 18 14.4183 18 10C18 5.58172 14.4183 2 10 2C5.58172 2 2 5.58172 2 10C2 14.4183 5.58172 18 10 18Z" fill="white"/>
</svg>
