<svg width="24" height="24" viewBox="0 0 24 24" fill="none" xmlns="http://www.w3.org/2000/svg">
<path fill-rule="evenodd" clip-rule="evenodd" d="M21 7H3V21H21V7ZM3 6C2.44772 6 2 6.44772 2 7V21C2 21.5523 2.44772 22 3 22H21C21.5523 22 22 21.5523 22 21V7C22 6.44772 21.5523 6 21 6H3Z" fill="white"/>
<path fill-rule="evenodd" clip-rule="evenodd" d="M7.5 6.5C7.5 4.01472 9.51472 2 12 2C14.4853 2 16.5 4.01472 16.5 6.5V10.5C16.5 10.7761 16.2761 11 16 11C15.7239 11 15.5 10.7761 15.5 10.5V6.5C15.5 4.567 13.933 3 12 3C10.067 3 8.5 4.567 8.5 6.5V10.5C8.5 10.7761 8.27614 11 8 11C7.72386 11 7.5 10.7761 7.5 10.5V6.5Z" fill="white"/>
</svg>
